<?xml version="1.0" encoding="UTF-8" standalone="no"?>
<!-- Created with Inkscape (http://www.inkscape.org/) -->

<svg
   width="474.56158"
   height="383.61411"
   viewBox="0 0 125.56109 101.4979"
   version="1.1"
   id="svg878"
   inkscape:version="1.1 (ce6663b3b7, 2021-05-25)"
   sodipodi:docname="dibujo-spider_man1.svg"
   xmlns:inkscape="http://www.inkscape.org/namespaces/inkscape"
   xmlns:sodipodi="http://sodipodi.sourceforge.net/DTD/sodipodi-0.dtd"
   xmlns="http://www.w3.org/2000/svg"
   xmlns:svg="http://www.w3.org/2000/svg">
  <sodipodi:namedview
     id="namedview880"
     pagecolor="#ffffff"
     bordercolor="#666666"
     borderopacity="1.0"
     inkscape:pageshadow="2"
     inkscape:pageopacity="0.0"
     inkscape:pagecheckerboard="0"
     inkscape:document-units="mm"
     showgrid="false"
     units="px"
     width="600px"
     fit-margin-top="0"
     fit-margin-left="0"
     fit-margin-right="0"
     fit-margin-bottom="0"
     inkscape:zoom="0.73228114"
     inkscape:cx="-228.73728"
     inkscape:cy="12.290362"
     inkscape:window-width="1853"
     inkscape:window-height="1025"
     inkscape:window-x="67"
     inkscape:window-y="27"
     inkscape:window-maximized="1"
     inkscape:current-layer="layer1" />
  <defs
     id="defs875" />
  <g
     inkscape:label="Capa 1"
     inkscape:groupmode="layer"
     id="layer1"
     transform="translate(-33.958454,-163.32891)">
    <path
       style="fill:#ffaaaa;stroke-width:0.50574"
       d="m 92.61462,263.91618 c -0.926416,-0.50922 -1.917428,-1.30126 -2.202258,-1.76007 -0.452911,-0.72957 -0.722001,-0.75798 -2.145265,-0.22654 -0.895064,0.33422 -1.918594,0.44544 -2.274504,0.24714 -0.41542,-0.23144 -0.50923,-0.15942 -0.26203,0.20116 0.49699,0.72491 -3.74731,0.45501 -5.4025,-0.34355 -1.51047,-0.72872 -2.80791,-2.42983 -2.80791,-3.68152 0,-0.85246 -0.2644,-0.96936 -1.82177,-0.80546 -1.41553,0.14897 -1.96612,0.50588 -2.46908,1.60048 -1.28973,2.8069 -4.77501,4.09655 -7.50782,2.77809 -1.65096,-0.79651 -2.58295,-3.41666 -2.58546,-7.26866 -0.002,-3.10692 -0.18385,-3.7376 -1.63106,-5.65752 -2.63315,-3.49327 -2.74826,-4.02999 -1.55121,-7.23327 0.5887,-1.57534 0.92851,-3.37377 0.75513,-3.9965 -0.17338,-0.62274 -1.62692,-2.61839 -3.23008,-4.43478 -2.40558,-2.72553 -3.6195,-3.62323 -6.94796,-5.13806 -8.15984,-3.71366 -11.65426,-8.65838 -12.66618,-17.92308 -0.29194,-2.67287 -1.57675,-6.48721 -2.71729,-8.06712 -0.39111,-0.54176 -0.86211,-2.60563 -1.04667,-4.58637 -0.29616,-3.17845 -0.19032,-3.85508 0.90131,-5.76215 1.02504,-1.79073 1.82984,-2.42376 4.69917,-3.69616 2.01735,-0.8946 4.32868,-1.54589 5.53826,-1.56058 1.93719,-0.0235 8.5947,1.79976 8.12327,2.22473 -0.11724,0.10569 -1.50126,-0.24916 -3.07555,-0.78856 -4.47331,-1.53268 -6.38011,-1.28529 -7.68972,0.99769 -1.0097,1.76016 -0.38973,1.74453 1.55101,-0.0391 0.92563,-0.8507 1.96453,-1.34326 2.6633,-1.26271 1.64445,0.18955 4.59291,1.27107 4.48689,1.64583 -0.17659,0.62425 0.73445,2.47886 1.21768,2.47886 0.27068,0 1.15339,0.61631 1.96159,1.36957 1.33551,1.24473 3.36149,2.47186 4.08103,2.47186 0.4492,0 -0.29614,-1.59624 -1.17711,-2.52094 -0.44032,-0.46217 -0.63414,-0.84031 -0.4307,-0.84031 0.20344,0 0.0608,-0.30144 -0.31694,-0.66987 -0.37775,-0.36843 -0.90364,-0.55112 -1.16862,-0.40599 -0.26499,0.14514 -0.31077,0.0144 -0.10173,-0.29049 0.20903,-0.3049 0.47345,-0.55437 0.58758,-0.55437 0.11414,0 2.67674,1.75615 5.69468,3.90256 l 5.48715,3.90255 -3.46229,-3.2356 c -2.25814,-2.11029 -4.57383,-3.71794 -6.65827,-4.62245 -1.75779,-0.76276 -2.88838,-1.387 -2.51244,-1.38721 0.37595,-2.1e-4 1.84896,0.532 3.27337,1.18268 2.34252,1.07008 6.51738,4.31588 15.00251,11.66392 l 2.97957,2.58027 -0.72057,-3.03188 c -0.41279,-1.73689 -0.58074,-4.02355 -0.39321,-5.3536 0.28914,-2.05065 0.16862,-2.47113 -1.03225,-3.60135 -0.74779,-0.70379 -1.72335,-2.06457 -2.1679,-3.02394 -0.51837,-1.11867 -1.27144,-1.84912 -2.09956,-2.03648 -1.3919,-0.31493 -3.79777,-2.61636 -5.22689,-5.00002 -0.48801,-0.81396 -1.83727,-2.02052 -2.99834,-2.68126 -2.34029,-1.3318 -4.06066,-3.55312 -4.63007,-5.97829 -0.29059,-1.23763 -0.57166,-1.52096 -1.25595,-1.26601 -0.48487,0.18064 -1.36098,0.44632 -1.94691,0.59039 -0.58592,0.14407 -1.63696,0.65976 -2.33564,1.14597 -1.72059,1.19737 -6.0775,1.25274 -5.82569,0.074 0.0952,-0.44549 0.89176,-0.99276 1.77021,-1.21615 0.87844,-0.22339 2.15625,-1.049 2.83956,-1.83469 l 1.2424,-1.42854 -1.28163,-1.37305 c -3.44332,-3.68896 -3.06292,-6.93479 0.40697,-3.47247 2.40263,2.39739 4.35472,2.67474 4.61326,0.65544 0.21168,-1.65328 2.03287,-2.17355 2.03287,-0.58074 0,0.87876 0.13194,0.95565 0.79221,0.46167 0.93886,-0.70242 2.62368,-0.25626 2.26276,0.59919 -0.17552,0.41602 0.5657,0.63912 2.45275,0.73826 1.80018,0.0946 3.62377,0.61632 5.45455,1.56058 1.51265,0.78018 3.32033,1.42363 4.01708,1.4299 0.69675,0.006 2.705,0.54547 4.46279,1.19823 1.75778,0.65275 3.85514,1.18783 4.66079,1.18905 0.80565,0.001 1.46482,0.19745 1.46482,0.43606 0,0.23861 1.17595,0.50871 2.61322,0.60022 1.43726,0.0915 2.50176,0.004 2.36554,-0.19374 -0.53678,-0.78051 0.899744,-0.29917 2.263784,0.75853 1.327702,1.02951 1.595375,1.06946 3.358837,0.50125 3.068765,-0.98879 9.545636,-0.72732 8.803346,0.35539 -0.27086,0.39509 0.66514,0.6151 2.33675,0.54925 0.38574,-0.0152 0.58349,0.0786 0.43944,0.20846 -0.14404,0.12985 0.97855,1.1448 2.49464,2.25544 3.05321,2.23668 6.02526,6.27901 6.54917,8.90764 0.18743,0.94035 1.16353,2.62688 2.16911,3.74784 1.00559,1.12096 1.67834,2.25691 1.495,2.52433 -0.18334,0.26742 0.0263,0.61062 0.46578,0.76266 0.46838,0.16202 0.66535,0.59069 0.4759,1.03574 -0.23129,0.54335 -0.12258,0.64751 0.38226,0.36624 0.46482,-0.25896 0.57815,-0.20731 0.33222,0.1514 -0.20529,0.29944 -0.11405,0.98107 0.20277,1.51473 0.41841,0.70478 0.41301,0.97028 -0.0198,0.97028 -0.32768,0 -0.48593,0.2701 -0.35165,0.60022 0.13427,0.33013 0.53161,0.54085 0.88297,0.46829 0.35136,-0.0726 0.47689,0.10427 0.27896,0.39298 -0.19793,0.28871 0.31278,1.80173 1.13491,3.36228 0.9698,1.84084 1.64066,2.63037 1.91012,2.248 0.49641,-0.70442 0.57234,3.69829 0.10045,5.82525 -0.18215,0.82102 -0.53895,1.37701 -0.79289,1.23553 -0.25394,-0.14148 -0.31125,0.0962 -0.12735,0.52824 0.1839,0.43201 0.48077,0.57961 0.65972,0.328 0.40432,-0.56847 5.18511,-2.74693 6.98365,-3.18224 l 1.33165,-0.32231 -1.33165,0.72328 c -1.83589,0.99716 -1.36636,0.93222 2.82476,-0.39069 3.9541,-1.2481 5.29071,-1.9813 2.7671,-1.51789 -0.87829,0.16128 0.29863,-0.36799 2.61538,-1.17615 2.31675,-0.80816 4.43901,-1.40125 4.71613,-1.31798 0.27712,0.0833 -0.86045,0.53909 -2.52793,1.01293 -4.53162,1.28772 -3.32759,1.30731 2.12211,0.0345 2.63668,-0.6158 5.99244,-1.16716 7.45726,-1.22524 l 2.66331,-0.10561 -3.19597,-0.31873 -3.19597,-0.31874 2.66331,-0.069 c 3.60811,-0.0935 7.20559,0.71336 8.65575,1.94124 1.14143,0.96646 1.19849,1.36396 1.19849,8.34843 v 7.33364 l -2.66331,3.17202 c -1.46482,1.74462 -2.66698,2.99852 -2.67146,2.78647 -0.0118,-0.55642 -1.04085,0.96138 -1.04085,1.53515 0,0.2641 0.23235,0.15606 0.51634,-0.24009 0.91577,-1.27743 0.56698,-0.0973 -0.78689,2.66237 -0.86589,1.76503 -1.53513,2.56965 -1.94661,2.3404 -0.34489,-0.19215 -0.48893,-0.14788 -0.3201,0.0984 0.4465,0.65126 -1.04098,2.12267 -4.66999,4.61956 -3.02555,2.08168 -4.95477,2.82478 -18.42153,7.09556 -1.27525,0.40443 -2.09657,1.05333 -2.47393,1.95457 -0.69346,1.65616 -3.32489,3.16032 -6.22566,3.55866 -3.73737,0.51323 -5.55491,1.70487 -8.63996,5.66468 -3.24712,4.16783 -4.76255,5.1964 -9.70445,6.5867 -4.182582,1.17669 -4.719447,1.17849 -6.821724,0.0229 z M 70.267433,250.90249 c -0.21226,-1.64341 -1.20703,-3.56001 -1.64352,-3.16652 -0.57117,0.51489 0.43785,4.62501 1.13541,4.62501 0.46202,0 0.63307,-0.491 0.50811,-1.45849 z m 53.022797,-5.50482 c -0.42593,-0.38397 -1.61015,-0.82089 -2.6316,-0.97096 l -1.85719,-0.27282 2.12425,0.72499 c 1.16834,0.39875 2.21203,0.96237 2.3193,1.25249 0.10728,0.29011 0.33559,0.40079 0.50735,0.24595 0.17177,-0.15485 -0.0362,-0.59569 -0.46211,-0.97965 z m 28.26991,-13.8562 c 0,-0.61009 -0.24604,-0.33768 -1.02256,1.13216 -0.59799,1.13191 -0.5869,1.14724 0.19418,0.26836 0.45561,-0.51265 0.82838,-1.14288 0.82838,-1.40052 z m -56.996777,-1.03054 c -0.770133,-0.73899 -1.836309,-1.19855 -2.780638,-1.19855 -0.842372,0 -2.298702,-0.33481 -3.236287,-0.74402 l -1.704705,-0.74402 1.257504,0.98411 c 0.691628,0.54126 1.800843,0.98411 2.464923,0.98411 1.355651,0 2.603011,1.06635 1.999069,1.70897 -0.217177,0.2311 -0.0072,0.15453 0.466612,-0.17014 0.695214,-0.47638 0.992583,-0.44792 1.540724,0.14747 0.373582,0.40579 0.805826,0.62369 0.960543,0.48421 0.154717,-0.13947 -0.280771,-0.79293 -0.967745,-1.45214 z m 31.014087,-2.18418 c 0.28469,-1.74862 -0.004,-1.50839 -1.28401,1.06945 -0.98828,1.98991 -0.98794,2.00497 0.0269,1.17708 0.56536,-0.46124 1.13109,-1.47218 1.25716,-2.24653 z m -19.23973,-4.26635 c -0.5653,-0.31496 -0.50652,-0.50679 0.28176,-0.91965 0.86305,-0.45201 0.7471,-0.53276 -0.86825,-0.60466 -1.02537,-0.0456 -2.70326,-0.15303 -3.72863,-0.23865 -1.97774,-0.16514 -4.793958,0.60504 -4.793958,1.31104 0,0.23206 0.53932,0.42487 1.198489,0.42848 0.659169,0.004 1.702079,0.12843 2.317569,0.27738 0.63144,0.1528 1.45114,-0.0285 1.88109,-0.41611 0.81219,-0.73217 2.70352,-0.39154 3.39061,0.61065 0.20579,0.30018 0.523,0.41162 0.70491,0.24763 0.18189,-0.16398 0.009,-0.47723 -0.38359,-0.69611 z m 27.11192,-1.16177 c 0,-0.22633 0.35955,-0.28713 0.79899,-0.13511 0.4867,0.16836 0.799,9.6e-4 0.799,-0.42881 0,-0.38786 0.29962,-0.71199 0.66582,-0.72029 0.6832,-0.0155 2.8776,-2.38581 2.20874,-2.38581 -0.8891,0 -5.94877,2.59505 -6.43879,3.30238 -0.44048,0.63583 -0.30928,0.77915 0.71323,0.77915 0.68916,0 1.25301,-0.18518 1.25301,-0.41151 z m -44.210923,-1.65752 c 0,-0.74182 -0.372768,-1.7682 -0.82838,-2.28085 -0.800214,-0.9004 -0.809264,-0.89643 -0.26633,0.11674 0.30913,0.57686 0.562048,1.60324 0.562048,2.28085 0,0.67761 0.119849,1.23202 0.266331,1.23202 0.146482,0 0.266331,-0.60694 0.266331,-1.34876 z m 16.778843,-5.85393 c 0.70245,-0.27211 0.79317,-0.42167 0.26633,-0.43908 -0.43944,-0.0145 -1.15854,0.18307 -1.59798,0.43908 -0.97369,0.56725 -0.13268,0.56725 1.33165,0 z m -43.132037,-3.21363 c -0.84847,-1.34332 -0.84381,-1.22662 0.0805,2.01318 0.35385,1.24029 0.43601,1.29419 0.591,0.38771 0.099,-0.57905 -0.20315,-1.65946 -0.67148,-2.40089 z m -1.34596,-0.98794 c -7.4e-4,-1.31285 -3.88182,-5.90348 -4.51129,-5.33604 -0.35611,0.32102 3.5451,6.62197 4.11253,6.64225 0.21972,0.008 0.39916,-0.57994 0.39876,-1.30621 z m 76.171377,0.41839 c 0,-0.48454 3.22853,-1.79443 3.92714,-1.59333 0.25567,0.0736 0.32779,-0.18814 0.16029,-0.58164 -0.19374,-0.45515 -0.0548,-0.62904 0.38198,-0.47796 0.37759,0.13062 0.99178,-0.0941 1.36488,-0.49935 0.37309,-0.40526 0.89089,-0.61842 1.15066,-0.47369 0.25977,0.14473 0.47231,0.0343 0.47231,-0.24538 0,-0.64275 -0.55496,-0.63819 -3.49276,0.0287 -1.30158,0.29545 -2.36652,0.72761 -2.36652,0.96036 0,0.23274 -0.2527,0.42317 -0.56155,0.42317 -0.30885,0 -1.32757,0.64724 -2.26381,1.43832 l -1.70226,1.43831 1.46482,0.002 c 0.80565,0.001 1.46482,-0.18765 1.46482,-0.41971 z m -37.21838,-6.66072 c 0.67622,-0.77729 0.65115,-0.78748 -0.33428,-0.13587 -0.585926,0.38744 -1.165196,0.76558 -1.287266,0.84031 -0.122065,0.0747 0.02836,0.13588 0.334277,0.13588 0.305919,0 0.885189,-0.37814 1.287269,-0.84032 z m 0.87236,-2.79258 c 1.76488,-1.734 3.30309,-2.89794 3.41824,-2.58653 0.11514,0.31141 0.51316,-0.0349 0.88447,-0.76952 0.55382,-1.09575 0.5502,-1.24617 -0.0201,-0.83731 -0.38239,0.27413 -1.57301,0.75313 -2.64583,1.06445 -1.07282,0.31133 -3.278083,1.21421 -4.900576,2.0064 -2.979097,1.45457 -3.23853,1.98724 -1.789855,3.675 0.929244,1.08261 1.803017,0.64129 5.053691,-2.55249 z m -12.968762,-1.46036 c 0.46341,-0.1603 0.842559,-0.53386 0.842559,-0.83013 0,-1.04271 -2.762384,-7.04145 -3.242544,-7.04145 -0.26735,0 -0.50607,0.8103 -0.53048,1.80067 -0.0244,0.99037 -0.11007,2.34087 -0.19036,3.00112 -0.1813,1.4911 0.71355,3.36125 1.60834,3.36125 0.36846,0 1.04908,-0.13115 1.512485,-0.29146 z m -3.701625,-0.69304 c -0.19016,-0.27737 -0.53566,-1.51984 -0.76777,-2.76103 -0.42156,-2.25422 -0.4221,-2.25469 -0.48468,-0.42447 -0.0578,1.68934 0.65745,3.68983 1.31918,3.68983 0.15347,0 0.12344,-0.22695 -0.0667,-0.50433 z m -10.04969,-15.41738 c -0.96743,-1.24512 -1.14761,-0.83695 -0.2775,0.62867 0.3167,0.53345 0.70069,0.85734 0.85332,0.71975 0.15263,-0.13759 -0.10649,-0.74438 -0.57582,-1.34842 z m 28.960317,-2.34386 c -1.00497,-0.57294 -1.58256,-0.57895 -1.58256,-0.0164 0,0.4562 1.66431,0.96054 2.11522,0.64099 0.138,-0.0978 -0.1017,-0.37884 -0.53266,-0.62453 z m -35.917347,-3.31055 c -0.1931,-0.28167 -0.606,-0.51213 -0.91755,-0.51213 -0.3532,0 -0.31279,0.27552 0.10734,0.73188 0.73057,0.79354 1.38349,0.61646 0.81021,-0.21975 z m 14.09364,-2.38147 c 0,-0.23584 -0.39345,-0.56491 -0.87434,-0.73126 -0.73106,-0.25289 -0.76402,-0.18263 -0.20111,0.42881 0.7671,0.83322 1.07545,0.91994 1.07545,0.30245 z M 144.003,204.9754 c 0.38451,-0.13871 0.84394,-0.12165 1.02094,0.0379 0.177,0.15956 -0.13761,0.27305 -0.69912,0.2522 -0.62052,-0.023 -0.74674,-0.13682 -0.32182,-0.29011 z M 84.844253,172.33322 c 0.36621,-0.13321 0.96545,-0.13321 1.33166,0 0.3662,0.13321 0.0666,0.2422 -0.66583,0.2422 -0.73241,0 -1.03203,-0.10899 -0.66583,-0.2422 z"
       id="path1884" />
    <path
       style="fill:#800000;stroke-width:0.50574"
       d="m 92.743112,262.90062 c -1.856092,-1.67323 -1.771482,-2.4265 0.319049,-2.84042 2.156544,-0.42699 3.951547,-1.46677 4.358844,-2.52493 0.26924,-0.69947 0.20934,-0.69202 -0.433857,0.0539 -0.601837,0.69799 -6.996802,3.19463 -8.256649,3.22346 -0.17672,0.004 -0.002,0.19014 0.38955,0.41356 0.5404,0.3088 0.44443,0.46902 -0.40023,0.66813 -0.71366,0.16824 -0.9843,0.077 -0.75664,-0.25507 0.22752,-0.33187 0.0215,-0.4018 -0.57549,-0.19531 -0.51147,0.17693 -1.04433,0.32169 -1.18414,0.32169 -0.13981,0 -0.0902,0.23923 0.11027,0.53163 0.23648,0.34494 0.0137,0.43725 -0.63439,0.26289 -0.54938,-0.1478 -1.71796,-0.41487 -2.59685,-0.59348 -2.08318,-0.42334 -4.52763,-2.497 -4.52763,-3.84084 0,-0.58258 -0.372,-1.18792 -0.82666,-1.34521 -0.49158,-0.17005 -0.6894,-0.0857 -0.48803,0.20797 0.21376,0.31179 -0.12564,0.38888 -0.92041,0.20906 -1.07182,-0.2425 -1.35994,-0.0333 -1.93759,1.40675 -1.40046,3.49132 -5.09287,4.63201 -7.95824,2.45853 -1.47057,-1.11548 -1.57661,-1.44244 -1.86087,-5.73762 -0.27299,-4.12474 -0.46424,-4.76803 -2.02588,-6.81418 -0.94845,-1.24269 -1.5033,-2.13623 -1.233,-1.98564 0.28095,0.15653 0.40363,-0.55633 0.28641,-1.66437 -0.14051,-1.32826 -0.35056,-1.73109 -0.66747,-1.2801 -0.74729,1.06343 -0.57513,-0.25291 0.35665,-2.72699 0.95774,-2.54301 0.60153,-4.0134 -1.60363,-6.61966 -0.74653,-0.88231 -1.1787,-1.78187 -0.96038,-1.99901 0.21833,-0.21714 0.10936,-0.24607 -0.24215,-0.0643 -0.51969,0.26877 -2.19104,-1.51957 -1.84788,-1.97723 0.0495,-0.066 -0.0315,-0.11715 -0.17994,-0.11361 -0.44183,0.0105 -5.68391,-2.4491 -7.86533,-3.69049 -1.18607,-0.67497 -1.87206,-1.37462 -1.65631,-1.68931 0.23077,-0.33659 0.12612,-0.40225 -0.28025,-0.17585 -0.36456,0.20311 -1.10031,-0.007 -1.68029,-0.48041 -1.14451,-0.93372 -1.41067,-1.91514 -0.36593,-1.34932 0.45242,0.24503 0.43152,0.10021 -0.0652,-0.45184 -0.85646,-0.95182 -1.34587,-1.0737 -0.85215,-0.21222 0.1892,0.33013 -0.15219,0.06 -0.75864,-0.60022 -1.25754,-1.3691 -3.01923,-5.17089 -2.57971,-5.5671 0.1609,-0.14505 0.44879,0.37756 0.63976,1.16136 0.19097,0.7838 0.84581,1.82563 1.45521,2.31519 l 1.108,0.8901 -0.80917,-1.44054 c -0.44505,-0.79229 -1.24138,-2.68493 -1.76964,-4.20587 -0.52825,-1.52093 -1.12512,-2.52515 -1.32637,-2.23161 -0.20125,0.29355 -0.47444,-0.7309 -0.60709,-2.27655 -0.13366,-1.55733 -0.90177,-4.20181 -1.72284,-5.93143 -0.81491,-1.71664 -1.71286,-4.55782 -1.99545,-6.31373 -0.45957,-2.85551 -0.38741,-3.45742 0.68344,-5.70142 1.10757,-2.32095 1.47834,-2.63031 4.95011,-4.13018 2.06408,-0.89172 4.23903,-1.60487 4.83322,-1.58478 0.82718,0.028 0.70587,0.16864 -0.51763,0.60023 -4.34986,1.53442 -5.0575,2.78993 -2.53014,4.48903 0.80565,0.54163 2.13036,2.18178 2.94379,3.64479 1.34241,2.41437 4.11397,4.924 4.11397,3.72516 0,-0.27019 -0.25967,-0.49125 -0.57705,-0.49125 -0.31737,0 -0.46718,-0.2701 -0.33291,-0.60023 0.13428,-0.33012 0.54956,-0.53545 0.92286,-0.45629 0.37329,0.0792 1.00104,0.0324 1.395,-0.10386 1.12666,-0.38974 -0.20212,-2.52448 -2.29835,-3.69237 -1.91128,-1.06485 -2.21962,-2.01579 -1.00782,-3.10819 0.53818,-0.48516 0.87381,-0.53098 1.1319,-0.15453 0.2629,0.38347 0.48245,0.36656 0.77465,-0.0596 0.28854,-0.42088 0.68372,-0.21512 1.35155,0.7037 1.2087,1.66294 10.38253,8.91195 11.27835,8.91195 0.3731,0 0.67837,0.19494 0.67837,0.4332 0,0.34789 2.72781,1.48751 3.56051,1.48751 0.39635,0 -1.0911,-2.18463 -3.22592,-4.73797 -1.18511,-1.41744 -2.20162,-2.86507 -2.25891,-3.21695 -0.0573,-0.35189 1.85035,0.80004 4.2392,2.55984 4.21664,3.10627 4.2845,2.90575 0.36585,-1.08116 -1.85311,-1.8854 5.48736,4.11055 8.95085,7.31137 0.97754,0.9034 1.87231,1.55694 1.98837,1.45231 0.11607,-0.10463 -0.0246,-0.93078 -0.31252,-1.83589 -0.28796,-0.90511 -0.52356,-3.29525 -0.52356,-5.31142 0,-2.7532 -0.20924,-3.82231 -0.84054,-4.29462 -0.4623,-0.34587 -1.40755,-1.63754 -2.10055,-2.87038 -0.83728,-1.48949 -1.80986,-2.44684 -2.89888,-2.85348 -1.90956,-0.71303 -4.14183,-2.94293 -4.60253,-4.59764 -0.17689,-0.63534 -1.13561,-1.60868 -2.13048,-2.16296 -0.99488,-0.55429 -1.80888,-1.24227 -1.80888,-1.52885 0,-0.28657 -0.15658,-0.37989 -0.34795,-0.20737 -0.57759,0.52068 -2.85762,-2.65579 -3.46649,-4.8294 -0.3691,-1.31763 -0.78296,-1.91419 -1.17425,-1.69261 -0.33234,0.1882 -1.04993,0.27598 -1.59464,0.19505 -0.60171,-0.0894 -0.85068,0.0566 -0.63439,0.37212 0.22056,0.32172 -0.17453,0.51926 -1.03853,0.51926 -0.79579,0 -1.25292,0.20655 -1.06471,0.48107 0.44997,0.65633 -2.24277,1.51928 -4.19092,1.34308 -0.87282,-0.0789 -1.69802,-0.44806 -1.8338,-0.82027 -0.17193,-0.47131 0.0261,-0.5823 0.65247,-0.36563 0.53134,0.1838 0.76617,0.11687 0.57391,-0.16358 -0.17899,-0.26107 0.10896,-0.47467 0.63989,-0.47467 1.00704,0 3.8915,-2.43404 3.8915,-3.28384 0,-0.26895 -0.33877,-0.79439 -0.75282,-1.16764 -0.82724,-0.74574 -2.97581,-4.20046 -2.97581,-4.78486 0,-0.20199 0.35111,-0.36725 0.78025,-0.36725 0.84061,0 2.21029,1.85329 1.95183,2.64099 -0.0867,0.2641 -7.9e-4,0.33885 0.19082,0.16613 0.19161,-0.17273 0.9605,-0.0278 1.70865,0.32214 1.75646,0.82147 2.46134,0.54442 3.21907,-1.26526 0.66503,-1.58827 1.73729,-1.48984 1.73729,0.15948 0,0.91726 0.0826,0.94158 0.93216,0.27441 1.05887,-0.83155 2.33813,-0.63031 1.93992,0.30517 -0.19082,0.44828 0.61517,0.69216 2.90639,0.87945 2.19273,0.17924 3.79988,0.64474 5.21158,1.50949 1.12262,0.68768 2.54896,1.25033 3.16965,1.25033 1.25419,0 3.87455,0.70442 6.42827,1.72808 0.92317,0.37005 2.06174,0.67282 2.53015,0.67282 0.46841,0 0.85166,0.30611 0.85166,0.68025 0,0.37414 0.29962,0.78924 0.66583,0.92245 0.3662,0.13321 -0.1132,0.25926 -1.06533,0.28011 -0.95213,0.0208 -1.73115,0.25398 -1.73115,0.51808 0,0.2641 -0.45942,0.48018 -1.02094,0.48018 -1.2377,0 -1.6733,0.89426 -1.00529,2.06384 0.30871,0.54051 0.84619,0.76237 1.43723,0.59327 0.60095,-0.17195 0.94411,-0.0224 0.94411,0.41132 0,0.40792 -0.32015,0.5707 -0.7976,0.40553 -0.53292,-0.18434 -0.66456,-0.0819 -0.3967,0.30885 0.2205,0.32162 0.79914,0.53015 1.28588,0.4634 0.48673,-0.0667 1.44697,0.15753 2.13386,0.49841 1.17062,0.58094 1.22935,0.54949 0.93707,-0.50184 -0.1715,-0.61689 -0.1742,-0.85151 -0.006,-0.52139 0.47403,0.93041 1.51025,0.71448 2.88034,-0.60022 0.69012,-0.66223 0.95648,-1.20045 0.59407,-1.20045 -0.36132,0 -0.51531,-0.20659 -0.3422,-0.45908 0.1731,-0.2525 -0.29215,-0.81755 -1.03389,-1.25568 -0.74175,-0.43812 -1.34863,-0.98782 -1.34863,-1.22154 0,-0.70062 1.60832,-0.47923 1.92512,0.26499 0.16153,0.37948 0.63645,0.57138 1.05539,0.42646 0.41893,-0.14492 1.12367,0.007 1.56609,0.33833 0.6753,0.50523 0.74674,0.46635 0.44511,-0.24223 -0.31869,-0.74868 -0.22066,-0.77717 0.86757,-0.25215 1.101171,0.53127 1.191151,0.5001 0.878444,-0.30427 -0.335237,-0.86231 -0.319937,-0.86315 0.404627,-0.0223 0.706097,0.81935 0.905447,0.82717 3.198115,0.12549 2.332226,-0.7138 5.249798,-0.87626 4.833581,-0.26915 -0.178807,0.26081 4.399174,1.6387 5.100154,1.53506 0.16468,-0.0243 1.00362,0.47729 1.86431,1.11476 1.18095,0.87465 1.39535,1.26057 0.87386,1.57289 -0.55242,0.33085 -0.52326,0.5394 0.14536,1.03963 0.70933,0.53068 0.78543,0.50601 0.50088,-0.16243 -0.48172,-1.13169 0.42958,-0.97091 1.65631,0.29221 3.03388,3.12389 5.00606,6.87988 4.47533,8.52318 -0.57927,1.79362 -0.56192,2.97566 0.0388,2.64099 0.29297,-0.16322 0.53266,-0.83697 0.53266,-1.49721 0,-0.67803 0.23181,-1.0713 0.53267,-0.90369 0.29296,0.16323 0.53266,0.9058 0.53266,1.65017 0,0.74438 0.37045,1.63057 0.82323,1.96932 0.45278,0.33875 0.69522,0.91663 0.53876,1.28418 -0.15646,0.36755 -0.0595,0.54296 0.21537,0.3898 0.61198,-0.34096 1.63825,1.28341 1.56551,2.47788 -0.0362,0.59522 -0.17042,0.49176 -0.42285,-0.32604 -0.41517,-1.34503 -2.18737,-1.95916 -2.18737,-0.758 0,0.41551 0.23218,0.75547 0.51595,0.75547 0.28376,0 0.38751,0.3017 0.23054,0.67045 -0.15754,0.37009 0.261,1.01545 0.93423,1.44054 1.13993,0.71977 1.15097,0.77257 0.16895,0.808 -0.77454,0.0279 -0.84069,0.11152 -0.25169,0.31799 1.18181,0.41427 2.0945,1.66013 2.11371,2.88531 0.009,0.59422 0.22907,1.0804 0.48834,1.0804 0.25927,0 0.87554,0.55602 1.36948,1.23559 0.8927,1.2282 0.89067,1.23218 -0.33823,0.66567 l -1.23632,-0.56992 1.21603,1.135 c 1.03448,0.96556 1.29067,1.02748 1.71605,0.41474 0.33973,-0.48937 0.40067,-0.16259 0.19009,1.01935 -0.18719,1.05065 -0.0757,1.87012 0.28143,2.0691 0.32525,0.18121 0.58408,1.01899 0.57517,1.86172 -0.0134,1.26646 -0.10975,1.3875 -0.55548,0.69782 -0.2966,-0.45893 -1.04991,-1.08078 -1.67401,-1.38188 l -1.13474,-0.54746 1.12779,1.29248 c 0.63937,0.73276 0.98614,1.62526 0.8007,2.06088 -0.21331,0.50112 -0.11593,0.65075 0.27997,0.43018 0.37457,-0.20868 0.90884,0.31286 1.395,1.36177 0.9863,2.12798 1.46364,2.2125 0.8051,0.14257 -0.73898,-2.32281 -0.6592,-2.51595 1.40586,-3.40368 1.04574,-0.44955 1.76021,-0.6115 1.58772,-0.35989 -0.3838,0.5598 1.12727,0.16768 7.10567,-1.84394 2.45801,-0.82708 4.55936,-1.42242 4.66966,-1.32299 0.1103,0.0994 -1.36295,1.09231 -3.2739,2.20638 -2.68833,1.56728 -3.7195,2.51049 -4.5575,4.16877 -1.64424,3.25372 -0.33178,4.09932 2.90657,1.87267 0.96024,-0.66025 1.96297,-1.20731 2.22828,-1.21569 0.26531,-0.008 1.30979,-0.76467 2.32105,-1.68063 1.01128,-0.91596 2.14141,-1.66538 2.51141,-1.66538 0.37,0 0.96102,-0.48561 1.31338,-1.07913 0.41443,-0.69808 0.72147,-0.86056 0.86953,-0.46014 0.17762,0.48037 0.39895,0.49176 0.98827,0.0509 0.6195,-0.46348 0.69324,-0.41274 0.40028,0.27547 -0.29991,0.70455 -0.14828,0.7907 0.91997,0.52271 1.27247,-0.31923 1.27351,-0.31642 0.2005,0.54481 -0.59321,0.47613 -0.99753,1.23251 -0.89848,1.68084 0.0991,0.44834 -0.0832,1.25864 -0.40499,1.80068 -0.35143,0.59195 -0.37922,0.98552 -0.0696,0.98552 0.28353,0 0.68296,-0.48618 0.88762,-1.0804 0.20466,-0.59423 0.82526,-1.66055 1.37911,-2.36962 0.55385,-0.70907 0.94188,-1.49335 0.86227,-1.74284 -0.16483,-0.51662 2.58519,-2.97019 3.32907,-2.97019 0.2691,0 1.02092,0.64825 1.67072,1.44054 1.1748,1.43245 3.24103,1.9372 3.91368,0.95606 0.39061,-0.56974 -0.22583,-2.59582 -0.6684,-2.19686 -0.16601,0.14966 -0.64771,0.0134 -1.07042,-0.3029 -0.42272,-0.31626 -1.16387,-0.62596 -1.647,-0.68823 -3.84193,-0.49517 -4.56868,-0.73605 -3.63773,-1.20571 0.91753,-0.46288 4.04273,-0.0641 6.48794,0.82793 0.98182,0.35816 1.00396,0.31571 0.28245,-0.54159 -0.52537,-0.62426 -0.31178,-0.55191 0.64941,0.21998 0.78776,0.63261 1.31592,1.31994 1.17369,1.5274 -0.14224,0.20746 -0.015,0.51293 0.28274,0.67881 0.32476,0.18094 0.54135,2.97689 0.54135,6.9882 v 6.6866 l -1.66745,1.56815 c -0.9171,0.86249 -1.33657,1.136 -0.93216,0.60781 0.68083,-0.88922 0.66445,-0.9102 -0.2211,-0.28321 -0.52602,0.37244 -0.83427,0.96407 -0.685,1.31474 0.14927,0.35066 0.0671,0.58615 -0.18269,0.52329 -0.44624,-0.11231 -2.63757,2.46526 -5.92418,6.96836 -0.91558,1.25447 -1.92378,2.28085 -2.24044,2.28085 -0.31666,0 -0.43648,0.12555 -0.26626,0.27899 0.17022,0.15345 0.86933,0.0198 1.55359,-0.29687 0.78713,-0.36434 0.26584,0.36587 -1.4192,1.98795 -3.22344,3.10303 -3.53835,3.32621 -4.18499,2.96594 -0.27898,-0.15543 -0.3475,-0.0496 -0.15228,0.23513 0.42793,0.62418 -5.32129,2.67742 -6.17115,2.20393 -0.36908,-0.20563 -0.41924,-0.0925 -0.13973,0.3152 0.31658,0.46178 0.19323,0.55199 -0.45036,0.32936 -0.48751,-0.16864 -0.88637,-0.0828 -0.88637,0.19084 0,0.28872 -0.47503,0.36156 -1.13203,0.17358 -0.81286,-0.23257 -1.01933,-0.15949 -0.73229,0.25917 0.29035,0.42351 0.0717,0.48921 -0.79899,0.24009 -0.8707,-0.24911 -1.08934,-0.18342 -0.799,0.24009 0.29035,0.42351 0.0717,0.48921 -0.79899,0.24009 -0.8102,-0.23181 -1.08182,-0.17245 -0.83803,0.18315 0.22605,0.32972 0.0521,0.41937 -0.46596,0.24016 -0.45466,-0.15728 -0.82666,-0.0536 -0.82666,0.23052 0,0.28406 -0.34081,0.39858 -0.75737,0.25448 -1.17006,-0.40475 -2.8115,0.61332 -3.19194,1.97974 -0.18877,0.67801 -0.54863,1.1183 -0.7997,0.97843 -0.25107,-0.13988 -0.58198,0.17829 -0.73537,0.70705 -0.3366,1.16032 -3.2973,2.34824 -6.77915,2.71998 -2.24337,0.23952 -2.7671,0.52717 -4.28511,2.35355 -0.95116,1.14437 -1.97212,1.94543 -2.2688,1.78014 -0.32414,-0.18059 -0.40367,0.0183 -0.19928,0.49851 0.22576,0.53038 0.0665,0.79904 -0.47358,0.79904 -0.44755,0 -0.66557,0.21608 -0.48451,0.48018 0.18106,0.2641 0.13528,0.48019 -0.10173,0.48019 -0.23701,10e-6 -1.13965,0.81032 -2.00587,1.80068 -0.8662,0.99036 -1.21445,1.58457 -0.77388,1.32048 0.44057,-0.2641 0.34372,-0.10204 -0.21523,0.36013 -1.09053,0.90171 -2.23758,1.14827 -1.70102,0.36563 0.18635,-0.27181 -0.0265,-0.35291 -0.49817,-0.18977 -0.45298,0.1567 -0.66809,0.51173 -0.47802,0.78896 0.20261,0.29553 0.0895,0.36137 -0.27348,0.15916 -0.34047,-0.1897 -1.01248,0.01 -1.49336,0.44327 -0.48087,0.43349 -1.31831,0.6835 -1.860967,0.55558 -0.542647,-0.12793 -0.852314,-0.0367 -0.688137,0.2028 0.16418,0.23947 -0.881444,0.4354 -2.323595,0.4354 -2.122863,0 -2.88948,-0.24103 -4.026399,-1.26592 z m -21.645423,-1.32253 c 0,-0.10316 -0.82213,-0.27408 -1.82695,-0.37983 -1.00482,-0.10575 -1.70978,-0.0214 -1.56656,0.18756 0.25777,0.37597 3.39351,0.55364 3.39351,0.19227 z m -5.02106,-2.10473 c -0.92031,-0.7924 -0.93459,-0.77952 -0.32463,0.29265 0.35092,0.61684 0.78412,0.98984 0.96267,0.82888 0.17855,-0.16096 -0.10857,-0.66564 -0.63804,-1.12153 z m 5.26464,-3.98323 c -0.39794,-0.58045 -2.37423,-0.58213 -2.37423,-0.002 0,0.4864 1.61801,0.94052 2.2725,0.63782 0.22451,-0.10384 0.27028,-0.38994 0.10173,-0.6358 z m 8.81167,0.51336 c 0.97369,-0.56724 0.13268,-0.56724 -1.33166,0 -0.70244,0.27211 -0.79316,0.42167 -0.26633,0.43908 0.43945,0.0145 1.15854,-0.18306 1.59799,-0.43908 z m 3.50204,-1.4985 c 0.45053,-0.65715 -0.52396,-0.49707 -1.66908,0.27417 -0.99754,0.67185 -0.99145,0.68673 0.17282,0.42222 0.66374,-0.15079 1.33705,-0.46417 1.49626,-0.69639 z m -11.44287,-0.99972 c 0.17349,-0.2389 0.0922,-1.55721 -0.18061,-2.92955 -0.27283,-1.37235 -0.53462,-2.92734 -0.58176,-3.45554 -0.0472,-0.5282 -0.50519,-1.11546 -1.01788,-1.30502 -1.396,-0.51617 -1.16231,-1.46254 0.26633,-1.07857 1.179,0.31687 1.18116,0.30983 0.13317,-0.43255 -1.2126,-0.85899 -2.31904,-0.96688 -3.42806,-0.33427 -0.66185,0.37754 -0.66272,0.54704 -0.006,1.25985 0.41705,0.45299 0.68058,1.35806 0.58562,2.01126 -0.12422,0.85453 0.015,1.08307 0.4965,0.81483 0.47347,-0.26378 0.56479,-0.13914 0.3123,0.42624 -0.19627,0.43947 -0.50235,1.12316 -0.68017,1.5193 -0.17924,0.3993 -0.0417,0.72027 0.30865,0.72027 0.42393,0 0.51737,0.47037 0.28385,1.42882 -0.19146,0.78586 -0.21623,1.6212 -0.055,1.85632 0.34884,0.50883 3.11235,0.12001 3.56358,-0.50139 z m 23.568885,0.30982 c -0.175091,-0.41132 -0.634757,-0.63841 -1.021475,-0.50463 -0.424249,0.14675 -0.596112,-0.008 -0.433315,-0.39062 0.267865,-0.62927 -1.286484,-1.49079 -1.820739,-1.00917 -0.153378,0.13826 -0.0068,0.25139 0.325851,0.25139 0.332594,0 0.476455,0.30132 0.319682,0.66961 -0.251001,0.58965 0.116488,0.80939 2.831906,1.69338 0.064,0.0208 -0.0268,-0.29863 -0.20191,-0.70996 z m -8.969785,-1.17285 c 0.53026,-0.5282 0.84426,-0.96036 0.69778,-0.96036 -0.14649,0 -0.70018,0.43216 -1.23044,0.96036 -0.53026,0.5282 -0.84425,0.96036 -0.69777,0.96036 0.14648,0 0.70018,-0.43216 1.23043,-0.96036 z m 11.452203,-0.52297 c 0,-0.6317 -3.686622,-3.79952 -4.412198,-3.79129 -0.404733,0.005 -0.44807,0.13982 -0.115412,0.36013 0.292964,0.19403 0.559694,0.82081 0.592735,1.39283 0.04389,0.75949 -0.171666,0.96709 -0.798992,0.76955 -0.472487,-0.14877 0.09973,0.38124 1.27158,1.17779 1.504916,1.02296 2.326183,1.3085 2.79647,0.97233 0.366197,-0.26178 0.665817,-0.65838 0.665817,-0.88134 z m 9.475398,0.0428 c 0.15953,0 0.15617,-0.1207 -0.008,-0.26822 -0.33555,-0.30248 -4.14133,1.0306 -4.14133,1.45061 0,0.14907 0.86822,-0.056 1.92936,-0.45568 1.06116,-0.39969 2.0599,-0.72671 2.21943,-0.72671 z m -9.128821,-2.14543 c -0.16502,-0.38769 -0.0813,-0.82677 0.18608,-0.97573 0.267377,-0.14897 0.351887,-0.58623 0.187807,-0.9717 -0.166567,-0.39129 0.0776,-0.83089 0.552857,-0.99529 0.468157,-0.16195 0.718577,-0.48789 0.556487,-0.72431 -0.162087,-0.23643 -0.0484,-0.42987 0.25268,-0.42987 0.30106,0 0.41684,-0.30667 0.25729,-0.68147 -0.15955,-0.37482 0.0933,-1.20894 0.56187,-1.85362 0.78935,-1.08601 0.78034,-1.25187 -0.12272,-2.25722 l -0.97467,-1.08507 -0.914404,1.25806 c -0.519387,0.71458 -0.665417,1.25807 -0.338037,1.25807 0.317007,0 0.418137,0.23081 0.224727,0.51291 -0.193407,0.2821 -0.667104,0.40379 -1.052664,0.27041 -0.385567,-0.13338 -0.833194,0.068 -0.994724,0.44744 -0.16153,0.37947 -0.0216,0.68995 0.31102,0.68995 0.332597,0 0.447007,0.14218 0.254237,0.31596 -0.19277,0.17377 -0.071,0.61952 0.27057,0.99055 0.515997,0.56048 0.380067,0.62007 -0.803607,0.35226 -1.093344,-0.24738 -1.42467,-0.14623 -1.42467,0.43491 0,0.50251 -0.29192,0.65628 -0.867743,0.45708 -0.47726,-0.1651 0.181909,0.59256 1.464819,1.68369 2.571885,2.18743 2.854172,2.33987 2.412795,1.30299 z m 21.637681,-2.6881 c -0.18774,-0.64717 -0.46909,-0.82866 -0.80925,-0.52201 -0.55136,0.49703 -0.11763,1.51411 0.64568,1.51411 0.24825,0 0.32185,-0.44645 0.16357,-0.9921 z m 2.12636,0.22488 c 0.17512,-0.15787 0.18708,-0.59554 0.0266,-0.97261 -0.22274,-0.52325 -0.46491,-0.5561 -1.02276,-0.13874 -0.40201,0.30076 -0.59957,0.73844 -0.43902,0.97262 0.33698,0.49151 0.97541,0.55323 1.43521,0.13873 z m -5.40137,-1.28155 c -0.52607,-0.4707 -0.58725,-0.41555 -0.29818,0.2688 0.20003,0.47357 0.49787,0.74007 0.66187,0.59222 0.164,-0.14784 3.4e-4,-0.5353 -0.36369,-0.86102 z m 7.55097,0.67394 c 0.16761,0.37995 0.3064,0.20595 0.3308,-0.41478 0.0561,-1.42652 -1.79545,-2.43143 -4.7519,-2.57904 -2.88626,-0.1441 -3.39888,-0.34351 -2.76646,-1.07612 0.26469,-0.30661 0.75243,-1.31376 1.08388,-2.2381 0.55678,-1.55278 0.54064,-1.60757 -0.21219,-0.72027 -0.44814,0.5282 -0.95023,1.44654 -1.11575,2.04076 -0.16552,0.59422 -0.57457,1.08728 -0.90902,1.09567 -1.27958,0.0321 1.53211,1.42527 2.87654,1.42527 0.77918,0 2.1794,0.23968 3.11159,0.53263 1.37808,0.43307 1.63533,0.72478 1.37625,1.56058 -0.22697,0.7322 -0.17391,0.83963 0.18442,0.3734 0.42474,-0.55262 0.54805,-0.55262 0.79184,0 z m -37.157291,-1.06755 c 0.13723,-0.84286 -2.22445,-3.65562 -2.70536,-3.22209 -0.18318,0.16513 -0.0655,0.75091 0.2615,1.30173 0.4479,0.75444 0.43818,1.00148 -0.0394,1.00148 -0.37758,0 -0.23932,0.3931 0.34188,0.97204 1.07291,1.06875 1.96232,1.04666 2.14138,-0.0532 z m 2.13035,-2.80726 c -0.16823,-0.24539 -0.0525,-0.58731 0.25714,-0.75984 0.309657,-0.17252 0.407737,-0.75471 0.217947,-1.29376 -0.209957,-0.59636 -0.1378,-0.86461 0.18431,-0.68514 0.938774,0.52303 1.868551,-1.22032 2.39799,-4.49628 0.06402,-0.39615 0.236251,-0.82831 0.382733,-0.96036 0.146482,-0.13205 0.670696,-0.88833 1.164921,-1.68063 1.278574,-2.04968 2.113414,-1.67095 2.793668,1.26739 0.19122,0.82593 0.746507,1.3699 1.594211,1.5617 1.057154,0.23918 1.253764,0.52809 1.049704,1.5425 -0.265507,1.31994 0.541517,2.59101 1.645087,2.59101 0.41667,0 0.56608,-0.44247 0.40534,-1.20045 -0.29406,-1.38674 1.12702,-1.73283 1.6895,-0.41145 0.18472,0.43395 0.46921,0.66877 0.63221,0.52184 0.6856,-0.61804 -1.56116,-2.64646 -3.5162,-3.1745 -2.099778,-0.56712 -3.197152,-1.66293 -3.197152,-3.19257 0,-1.41471 -2.112201,-3.58699 -3.487789,-3.58699 -1.574242,0 -5.56744,-1.39469 -5.56744,-1.94452 0,-0.21983 0.22398,-0.52449 0.49772,-0.67701 0.27375,-0.15251 0.87422,-1.44478 1.334377,-2.8717 0.864384,-2.68044 0.510147,-4.82644 -0.933267,-5.65382 -0.89873,-0.51515 -4.21811,-0.4654 -3.85938,0.0579 0.16407,0.2393 0.77873,0.32184 1.36593,0.18342 0.5872,-0.13843 1.42886,0.0186 1.87035,0.34887 0.6542,0.48945 0.67832,0.7391 0.13033,1.3493 -0.43663,0.4862 -0.45488,0.63118 -0.052,0.41348 1.00117,-0.54108 1.10441,0.64693 0.30355,3.49287 -0.95601,3.39732 -1.42593,8.08363 -0.62252,6.2082 0.53081,-1.2391 0.55894,-1.24496 2.388124,-0.49756 1.018034,0.41597 1.760624,0.98021 1.650204,1.25387 -0.11043,0.27366 0.0344,0.90846 0.321866,1.41068 0.421144,0.73578 0.361422,0.85735 -0.307486,0.62595 -0.67318,-0.23287 -0.80859,0.0603 -0.71617,1.5507 0.0693,1.11773 -0.10415,1.76242 -0.442687,1.64531 -0.306157,-0.10591 -0.855644,0.51402 -1.221084,1.37761 -0.545617,1.2894 -0.763957,1.44138 -1.221007,0.8499 -0.42654,-0.55198 -0.47183,-0.45086 -0.19389,0.43277 0.29287,0.93105 0.19808,1.0961 -0.49233,0.85727 -0.60447,-0.20911 -0.95133,0.0501 -1.18362,0.8844 -0.18072,0.6491 -0.54271,1.06088 -0.80442,0.91507 -1.01166,-0.56363 -0.40988,0.64039 0.85582,1.71228 0.73241,0.62028 1.33165,1.4623 1.33165,1.87118 0,0.53217 0.23579,0.43993 0.82985,-0.32464 0.45642,-0.58742 0.69221,-1.26881 0.52397,-1.5142 z m -19.99698,-0.23315 c 0,-1.02044 -0.88289,-1.7199 -2.17093,-1.7199 -2.5563,0 -1.23629,1.63568 1.5051,1.86501 0.3662,0.0306 0.66583,-0.0347 0.66583,-0.14511 z m 42.080241,-0.2727 c -0.43945,-0.25235 -1.87764,-0.5996 -3.19597,-0.77166 -1.31834,-0.17206 -2.86822,-0.66455 -3.44418,-1.09442 -1.02191,-0.7627 -1.02669,-0.75258 -0.19796,0.41888 0.59562,0.84194 1.34202,1.20897 2.49931,1.22901 0.90754,0.0157 1.81559,0.17776 2.01789,0.36013 0.2023,0.18236 0.98703,0.32827 1.74386,0.32422 1.07834,-0.006 1.20318,-0.10661 0.57705,-0.46616 z m -43.324451,-2.67993 c 0.17618,-0.4139 0.0488,-0.99732 -0.28305,-1.29648 -0.44942,-0.40513 -0.6034,-0.39689 -0.6034,0.0323 0,0.31691 -0.46525,0.57621 -1.03389,0.57621 -1.23897,0 -1.91029,0.77867 -0.96691,1.12153 1.34017,0.48707 2.57424,0.30177 2.88725,-0.43354 z m 50.316991,-2.48866 c 0.66257,-0.76159 0.64373,-0.77858 -0.20111,-0.1813 -0.51268,0.36247 -0.93216,0.74061 -0.93216,0.84032 0,0.3952 0.43742,0.14084 1.13327,-0.65902 z M 70.396239,236.7063 c -0.17004,-0.38305 -0.29626,-0.26927 -0.32182,0.29011 -0.0231,0.50619 0.10276,0.7898 0.27976,0.63024 0.177,-0.15957 0.19593,-0.57372 0.042,-0.92035 z m 1.76677,-1.3505 c 0,-0.2641 -0.1057,-0.48018 -0.23489,-0.48018 -0.12919,0 -0.38304,0.21608 -0.5641,0.48018 -0.18106,0.2641 -0.0754,0.48018 0.2349,0.48018 0.31025,0 0.56409,-0.21608 0.56409,-0.48018 z m 52.813601,-3.24121 c 1.54113,-1.31151 2.05478,-2.09417 1.89077,-2.88108 -0.14396,-0.69073 0.0363,-1.0804 0.49995,-1.0804 0.39882,0 0.72513,-0.21608 0.72513,-0.48018 0,-0.2641 0.29962,-0.48499 0.66583,-0.49086 0.3662,-0.006 1.26507,-0.43323 1.99748,-0.94968 0.73241,-0.51645 1.6601,-0.9438 2.06154,-0.94968 1.87692,-0.0275 7.00122,-3.60386 10.41864,-7.27148 0.82521,-0.88563 0.79798,-0.91358 -0.61491,-0.63124 -3.29425,0.6583 -5.3612,1.3697 -8.44113,2.90524 -3.34733,1.66885 -6.61403,4.76349 -6.62827,6.27914 -0.005,0.57044 -0.14524,0.67416 -0.40761,0.30225 -0.24597,-0.34864 -1.23497,0.89687 -2.5737,3.24121 -1.19582,2.09409 -2.0697,3.80743 -1.94195,3.80743 0.12775,0 1.18445,-0.8103 2.34823,-1.80067 z m -2.72587,0.12004 c 0.72283,-0.88833 0.71153,-0.91093 -0.15073,-0.30134 -0.51268,0.36246 -0.93215,0.88466 -0.93215,1.16044 0,0.27577 0.0678,0.41138 0.15072,0.30134 0.0829,-0.11005 0.50237,-0.63224 0.93216,-1.16044 z m -18.92705,0.24009 c 0.18671,-0.27234 -0.2608,-0.48018 -1.03389,-0.48018 -0.7497,0 -1.36309,0.21608 -1.36309,0.48018 0,0.2641 0.46525,0.48018 1.03389,0.48018 0.56863,0 1.18203,-0.21608 1.36309,-0.48018 z m 11.45223,-1.17211 c 0,-0.38056 -0.2397,-0.82547 -0.53267,-0.98869 -0.29296,-0.16323 -0.53266,0.14814 -0.53266,0.69192 0,0.54379 0.2397,0.9887 0.53266,0.9887 0.29297,0 0.53267,-0.31136 0.53267,-0.69193 z m -59.658081,-2.43629 c 0,-0.35094 -3.35474,-2.15139 -3.99496,-2.14405 -0.29297,0.003 0.42613,0.52238 1.59798,1.15339 2.50721,1.35005 2.39698,1.30449 2.39698,0.99066 z m 43.54507,-2.64259 c 1.641131,0.034 2.796461,-0.15056 2.796461,-0.44684 0,-0.27767 0.58213,-0.50486 1.29361,-0.50486 0.71149,0 1.66981,-0.33913 2.12961,-0.75363 0.75956,-0.68472 0.97755,-0.66277 2.38408,0.24009 1.84685,1.1855 2.18263,1.22657 2.18263,0.26694 0,-0.39973 0.29055,-1.14619 0.64566,-1.65879 0.35511,-0.5126 0.51497,-1.04983 0.35523,-1.19383 -0.62557,-0.56393 -13.791889,-0.44767 -14.429826,0.12742 -0.348321,0.314 -1.184616,0.57091 -1.858433,0.57091 -1.415367,0 -1.693394,0.9434 -0.292964,0.99411 0.797097,0.0289 0.777804,0.0935 -0.133165,0.44643 l -1.065324,0.41268 1.065324,0.0483 c 0.989089,0.0449 0.997814,0.0838 0.121963,0.54344 -1.253518,0.65786 -0.575562,1.56524 0.870311,1.16482 0.626107,-0.17339 2.396782,-0.28915 3.934833,-0.25724 z m -12.88231,-1.79201 c -0.0755,-0.46217 0.24528,-1.09498 0.71296,-1.40624 0.76729,-0.51068 0.75405,-0.59955 -0.1356,-0.91029 -1.21215,-0.42337 -2.13702,0.68768 -1.31537,1.58016 0.40738,0.4425 0.38992,0.61633 -0.0619,0.61633 -0.34613,0 -0.48118,0.21608 -0.30012,0.48017 0.53562,0.78126 1.24846,0.54788 1.10004,-0.36013 z m 33.789271,-1.46881 c 0,-1.30176 -1.26732,-3.46121 -1.74425,-2.97209 -0.12835,0.13163 -0.37542,0.91349 -0.54904,1.73747 -0.29099,1.38099 0.31925,2.10163 2.16013,2.55089 0.0732,0.0179 0.13316,-0.57445 0.13316,-1.31627 z m -31.830801,-2.73985 c -0.14084,-0.66415 -0.50418,-1.34578 -0.80743,-1.51473 -0.30325,-0.16896 -0.39585,-0.0804 -0.20579,0.19687 0.19007,0.27723 -0.009,0.62656 -0.44138,0.77628 -1.04247,0.36062 -0.4263,1.74912 0.7762,1.74912 0.711,0 0.87323,-0.28876 0.6784,-1.20754 z m 9.859556,-0.11295 c 0.342147,-0.92966 -2.237486,-0.72845 -3.622486,0.28255 l -1.209339,0.88278 2.305461,-0.28256 c 1.268,-0.1554 2.404864,-0.55265 2.526364,-0.88277 z m -15.297476,-0.36015 c 0.72283,-0.88833 0.71152,-0.91093 -0.15073,-0.30134 -0.51268,0.36247 -0.93215,0.88466 -0.93215,1.16044 0,0.27577 0.0678,0.41138 0.15072,0.30134 0.0829,-0.11004 0.50237,-0.63224 0.93216,-1.16044 z m -17.83107,-7.26349 c -0.16423,-0.58987 -0.59786,-1.3577 -0.96362,-1.70629 -0.36576,-0.34859 -1.35152,-1.54529 -2.19058,-2.65933 -1.64322,-2.18177 -3.4868,-3.55162 -7.26336,-5.39697 l -2.39698,-1.17124 2.17228,2.37615 c 2.54799,2.78714 5.54624,6.7023 5.56316,7.26447 0.007,0.21651 0.50362,0.93386 1.10468,1.5941 0.75273,0.82686 1.17889,1.00932 1.36935,0.58629 0.35501,-0.7885 2.27415,2.55837 2.4066,4.19699 0.0542,0.67043 0.1882,0.0421 0.2978,-1.39636 0.1096,-1.43843 0.0649,-3.09794 -0.0993,-3.68781 z m 44.712891,4.3821 c 1.55467,-1.16359 1.56996,-1.21559 0.56402,-1.91834 -1.32003,-0.92217 -3.12564,-0.91855 -5.1181,0.0103 -1.76136,0.82109 -1.79025,0.88284 -1.02013,2.18004 0.79907,1.34596 3.59472,1.20955 5.57421,-0.27198 z m 5.59295,-3.51119 c 0,-0.21469 -0.72068,-1.01276 -1.6015,-1.7735 -1.6354,-1.41244 -3.04072,-1.21046 -2.37986,0.34204 0.49775,1.16932 3.98136,2.42182 3.98136,1.43146 z m 3.9758,-0.11778 c 0.45694,0.6665 1.88347,-0.21043 1.88347,-1.15783 0,-0.85202 -1.76413,-2.5363 -2.43836,-2.32798 -0.31571,0.0976 -0.8499,-0.36843 -1.18706,-1.03551 -0.61302,-1.21288 -1.70119,-1.66342 -1.70119,-0.70437 0,0.27969 0.18833,0.40359 0.41852,0.27535 0.23019,-0.12825 0.41852,0.1471 0.41852,0.6119 0,0.46479 -0.29764,0.84507 -0.66142,0.84507 -0.36379,0 -0.54821,-0.16514 -0.40983,-0.36697 0.13837,-0.20183 0.008,-0.50269 -0.28977,-0.66858 -0.60821,-0.33886 -0.70224,0.25892 -0.2192,1.39367 0.17718,0.41623 0.57448,0.61619 0.8829,0.44436 0.35868,-0.19983 0.44854,0.0744 0.24938,0.76096 -0.22771,0.78494 -0.11445,1.00525 0.42149,0.81986 0.43115,-0.14915 0.8777,0.15788 1.08469,0.74578 0.24849,0.7058 0.47162,0.82458 0.75967,0.40442 0.30355,-0.44276 0.50512,-0.45302 0.78819,-0.0401 z m -78.713891,-4.6538 c -0.13398,-0.46218 -0.2436,-0.084 -0.2436,0.84031 0,0.92435 0.10962,1.30249 0.2436,0.84031 0.13398,-0.46217 0.13398,-1.21845 0,-1.68062 z m 63.103331,-4.94332 c 2.04524,-1.93815 4.47899,-5.62894 3.99782,-6.0627 -0.1397,-0.12593 -1.02336,0.12969 -1.96369,0.56805 -0.94034,0.43835 -2.18482,0.68501 -2.7655,0.54812 -0.58069,-0.13689 -0.92036,-0.12681 -0.75484,0.0224 0.40853,0.36827 -1.672827,1.74923 -3.791025,2.5153 -2.017751,0.72975 -2.143431,1.34811 -0.627167,3.08581 1.627301,1.86496 3.441532,1.65694 5.904402,-0.67699 z m -14.012451,-2.90657 c 0.922597,-0.28993 1.677464,-0.61211 1.677464,-0.71595 0,-0.10384 -0.997667,-2.47406 -2.217024,-5.26715 l -2.21703,-5.07836 -0.7547,1.59274 c -0.93463,1.97248 -1.46093,6.12369 -0.99055,7.81316 0.19354,0.69516 0.88405,1.45696 1.53445,1.69289 0.65041,0.23592 1.20671,0.44265 1.23623,0.45939 0.0295,0.0167 0.80854,-0.20679 1.73116,-0.49672 z m -11.26995,-4.62563 c -0.13506,-0.4672 -0.25444,-0.20121 -0.26529,0.59108 -0.0109,0.7923 0.0996,1.17455 0.24555,0.84945 0.14591,-0.32509 0.15479,-0.97334 0.0197,-1.44053 z m 34.770191,-2.28999 c 0,-0.2641 -0.23235,-0.15606 -0.51634,0.24009 -0.284,0.39614 -0.51635,0.93634 -0.51635,1.20044 0,0.2641 0.23235,0.15606 0.51635,-0.24009 0.28399,-0.39614 0.51634,-0.93635 0.51634,-1.20044 z m -61.840351,-0.59834 c -1.32112,-1.51517 -2.10956,-2.16046 -2.36186,-1.93303 -0.36177,0.32613 1.87376,2.77146 2.53369,2.77146 0.32492,0 0.25292,-0.35129 -0.17183,-0.83843 z m 50.404441,-2.04265 c -0.18106,-0.2641 -0.61468,-0.47687 -0.96359,-0.47283 -0.381177,0.004 -0.315477,0.19314 0.1646,0.47283 1.02331,0.59615 1.2077,0.59615 0.79899,0 z m 1.53654,-2.132 c -0.38793,-0.91133 -2.859927,-2.35958 -4.185021,-2.45186 -0.577777,-0.0402 -1.373901,0.21838 -1.769188,0.57472 -0.603137,0.54372 -0.584117,0.64788 0.118347,0.64788 0.46037,0 0.838617,0.37814 0.840547,0.84031 0.003,0.60079 0.305167,0.42971 1.061804,-0.60022 1.029814,-1.40175 1.280761,-1.32793 1.100044,0.32359 -0.0538,0.4913 0.388317,0.8859 1.137147,1.01502 0.67381,0.11618 1.39736,0.24066 1.60789,0.27663 0.21052,0.036 0.25032,-0.24577 0.0884,-0.62607 z m 2.45843,0.39968 c 0,-0.39741 -1.03429,-0.62215 -1.27142,-0.27626 -0.15384,0.22439 0.0693,0.40798 0.49585,0.40798 0.42656,0 0.77557,-0.0593 0.77557,-0.13172 z m -27.946661,-3.43654 c 0.01,-0.85451 -0.18399,-1.55365 -0.43093,-1.55365 -0.24694,0 -0.29436,-0.22555 -0.10536,-0.50122 0.18899,-0.27566 0.0626,-0.8064 -0.28076,-1.17941 -0.3434,-0.37301 -0.48275,-0.88478 -0.30965,-1.13726 0.33722,-0.49186 -0.45371,-0.4306 -1.93785,0.15011 -1.11177,0.43501 -0.9811,2.21687 0.32988,4.49831 1.19132,2.07319 2.70915,1.91952 2.73467,-0.27688 z m 29.708541,-0.11312 c 0.52959,-0.92434 1.16058,-2.61234 1.40221,-3.7511 0.36707,-1.72999 0.31027,-2.02583 -0.34542,-1.79901 -0.43161,0.1493 -1.48044,-0.17511 -2.33074,-0.72092 -0.85029,-0.54581 -1.78732,-0.85793 -2.08229,-0.69359 -0.29496,0.16434 -0.53629,0.0459 -0.53629,-0.26316 0,-0.71634 -3.818394,-0.13345 -4.385081,0.66939 -0.24818,0.35161 -0.418277,0.20295 -0.462497,-0.4042 -0.0626,-0.85977 -0.0963,-0.86854 -0.32129,-0.0838 -0.141767,0.49443 0.17543,1.18902 0.727607,1.59329 0.913214,0.66859 0.880584,0.69779 -0.485847,0.43478 -1.047044,-0.20154 -1.464811,-0.091 -1.464811,0.38744 0,0.36817 -0.13437,1.39866 -0.29859,2.29 l -0.298577,1.6206 0.835574,-1.20045 0.835567,-1.20044 -0.3284,1.32049 c -0.302107,1.21477 -0.199397,1.32049 1.282924,1.32049 0.886234,0 1.732231,-0.2701 1.880001,-0.60022 0.16371,-0.36575 0.2851,-0.27927 0.31072,0.22138 0.0645,1.26006 2.13787,2.73287 3.70357,2.63082 1.00884,-0.0658 1.66719,-0.55968 2.36166,-1.7718 z m 2.71676,0.24009 c -0.81488,-1.12111 -1.81534,-1.60642 -1.81534,-0.88059 0,0.43024 1.75926,2.01668 2.27609,2.0525 0.22648,0.0157 0.0191,-0.51166 -0.46075,-1.17191 z m -0.38615,-3.21119 c -0.17003,-0.38306 -0.29625,-0.26928 -0.32181,0.2901 -0.0231,0.50619 0.10276,0.7898 0.27977,0.63024 0.17699,-0.15956 0.19591,-0.57372 0.042,-0.92034 z m -30.735551,-2.56181 c -0.35385,-0.38437 -0.87229,-0.5713 -1.15207,-0.41542 -0.28247,0.15737 -0.078,0.65795 0.45985,1.12559 1.0979,0.95464 1.67749,0.36002 0.69222,-0.71017 z m -7.97992,0.53413 c 0,-0.37245 -0.63928,-1.5574 -1.42063,-2.63322 -1.11947,-1.54137 -1.57371,-1.84152 -2.14268,-1.41584 -0.88363,0.66109 -0.44858,2.16586 1.05407,3.64583 1.23637,1.21771 2.50924,1.42226 2.50924,0.40323 z m 4.5563,-7.52771 c 0.19684,-0.28711 0.0911,-0.76249 -0.23489,-1.0564 -0.43527,-0.39238 -0.59278,-0.35574 -0.59278,0.13788 0,0.52286 -0.14205,0.5442 -0.6392,0.096 -0.75601,-0.68153 -2.76164,-0.78335 -2.30482,-0.11701 0.17316,0.25256 0.6765,0.33409 1.11855,0.18118 0.44204,-0.15292 0.76553,-0.0895 0.71885,0.14102 -0.24248,1.19737 1.21723,1.66321 1.93429,0.61729 z m -10.06048,-0.65176 c 0,-0.38147 -0.13983,-0.68001 -0.31072,-0.6634 -1.10381,0.10723 -1.56814,-0.17936 -1.30233,-0.80381 0.19692,-0.46262 -0.0108,-0.72027 -0.58081,-0.72027 -0.48808,0 -0.73928,0.21608 -0.55822,0.48018 0.18106,0.2641 0.0154,0.48737 -0.36806,0.49615 -0.8733,0.02 1.5697,1.90474 2.46893,1.90474 0.35817,0 0.65121,-0.31211 0.65121,-0.69359 z m -3.34783,-2.93269 c 0.1819,-0.42732 0.0926,-0.62007 -0.20934,-0.45184 -0.28961,0.16135 -0.52656,0.4967 -0.52656,0.74521 0,0.6907 0.38179,0.5385 0.7359,-0.29337 z m -22.00032,44.6416 c 0.0256,-0.55939 0.15178,-0.67316 0.32182,-0.29011 0.15387,0.34663 0.13495,0.76078 -0.0421,0.92034 -0.177,0.15956 -0.30289,-0.12405 -0.27977,-0.63023 z m 107.455711,-8.69114 c 0.38451,-0.13871 0.84393,-0.12165 1.02094,0.0379 0.17699,0.15956 -0.13761,0.27305 -0.69912,0.2522 -0.62053,-0.023 -0.74674,-0.13682 -0.32182,-0.29011 z m -84.910251,-13.23705 -1.01471,-1.0804 1.19849,0.91474 c 1.12628,0.85962 1.44097,1.24607 1.01471,1.24607 -0.10107,0 -0.64039,-0.48619 -1.19849,-1.08041 z"
       id="path1232" />
    <path
       style="fill:#000000;stroke-width:0.50574"
       d="m 91.979794,263.83124 c -0.558087,-0.57359 -0.715087,-0.88496 -0.348877,-0.69193 0.366197,0.19303 0.665814,0.14734 0.665814,-0.10154 0,-0.24888 0.528857,-0.57719 1.175224,-0.72957 0.64637,-0.15237 1.02645,-0.41116 0.84462,-0.57508 -0.18184,-0.16392 -0.85628,-0.0444 -1.498747,0.26553 -0.741944,0.35795 -1.353691,0.39628 -1.676748,0.10505 -0.32306,-0.29123 0.243477,-0.56693 1.552861,-0.75568 2.393284,-0.345 3.914938,-1.63872 5.366303,-4.56249 0.569623,-1.14751 1.183532,-1.87072 1.364237,-1.60713 0.408147,0.59533 6.544719,-1.00345 9.130559,-2.37881 1.30251,-0.69278 2.28902,-0.8801 3.43747,-0.65271 1.94152,0.38441 1.9562,0.55957 0.20142,2.40341 -0.75402,0.79229 -1.21065,1.17043 -1.01473,0.84031 0.19593,-0.33012 0.21695,-0.60022 0.0467,-0.60022 -0.17022,0 -0.96769,0.93559 -1.77213,2.0791 -2.6278,3.73533 -4.03918,4.88866 -7.57028,6.18613 -4.963344,1.82373 -6.270495,2.00005 -7.861305,1.06041 -1.234604,-0.72924 -1.327564,-0.73122 -1.025637,-0.0219 0.445827,1.04731 0.19487,0.98244 -1.016774,-0.26288 z m 4.770855,-2.55844 c -0.334064,-0.78477 -1.257954,-0.99049 -1.257954,-0.28011 0,0.36446 0.37331,0.61257 1.448112,0.96247 0.06404,0.0208 -0.02152,-0.28622 -0.190158,-0.68236 z m -14.8408,1.4724 c -2.69748,-1.09861 -3.61954,-1.98011 -3.7238,-3.55998 -0.0549,-0.83258 0.10631,-1.51377 0.35834,-1.51377 0.25203,0 2.01061,-0.68233 3.90796,-1.51629 2.72762,-1.1989 3.73859,-1.96064 4.82971,-3.63904 0.75899,-1.16751 1.28163,-2.21141 1.16142,-2.31977 -0.1202,-0.10836 -0.7598,0.67112 -1.42133,1.73218 -0.99556,1.59683 -1.97447,2.2628 -5.68193,3.86551 -2.46353,1.06497 -4.98381,1.97059 -5.60062,2.01247 -0.7615,0.0517 -1.52946,0.80197 -2.3926,2.33746 -0.69912,1.24372 -1.4687,2.37138 -1.71016,2.50591 -1.01015,0.5628 -4.69728,-0.67075 -5.83736,-1.95292 -0.81861,-0.92063 -1.22199,-1.11767 -1.27874,-0.62461 -0.0456,0.39615 -0.27093,-1.22446 -0.50073,-3.60135 -0.2298,-2.37688 -0.53489,-4.75377 -0.67798,-5.28197 -0.14309,-0.52819 -0.2785,-1.13517 -0.30091,-1.34883 -0.0224,-0.21366 -0.34038,-0.23304 -0.70659,-0.0431 -0.3662,0.18998 -0.49448,0.17432 -0.28507,-0.0348 0.20942,-0.20912 0.12952,-0.8034 -0.17755,-1.32063 -0.97004,-1.63395 -0.91294,-5.09962 0.0976,-5.92404 0.83531,-0.68147 0.90908,-0.59836 0.96355,1.08562 0.0593,1.83253 0.15759,2.31937 0.88544,4.38511 0.28866,0.81926 0.51067,0.95225 0.82478,0.49409 0.23639,-0.3448 0.59684,-0.47633 0.80099,-0.29229 0.20416,0.18405 0.0465,0.68736 -0.35042,1.11847 -0.60994,0.66251 -0.60044,0.86868 0.0614,1.33209 0.43065,0.30155 0.70455,1.03445 0.60867,1.62867 -0.10514,0.65159 0.10465,1.08332 0.52855,1.08775 0.55621,0.006 0.54889,0.0953 -0.035,0.42864 -0.53148,0.30342 -0.61589,0.80514 -0.30172,1.79332 0.23991,0.75462 0.48386,1.69616 0.54211,2.0923 0.232,1.57783 0.54185,2.16125 1.56285,2.94274 0.65522,0.50152 1.28557,0.65095 1.63746,0.38819 0.31467,-0.23498 1.07472,-0.33999 1.68901,-0.23334 0.6394,0.111 1.2416,-0.0991 1.40863,-0.49149 0.17112,-0.40196 -0.0317,-0.68535 -0.49052,-0.68535 -0.43025,0 -0.78227,0.22682 -0.78227,0.50404 0,0.32644 -0.30819,0.34856 -0.87465,0.0628 -0.48106,-0.24269 -1.37993,-0.34272 -1.99748,-0.2223 -0.9132,0.17808 -0.97366,0.12357 -0.32385,-0.29191 0.43945,-0.28098 1.18681,-0.40227 1.6608,-0.26952 0.47399,0.13275 1.5088,0.0196 2.29957,-0.25142 1.14507,-0.39246 1.36466,-0.70047 1.07862,-1.5129 -0.26611,-0.75583 -0.18293,-0.92193 0.32108,-0.64113 0.48366,0.26947 0.58195,0.14808 0.34012,-0.42005 -0.18917,-0.44438 -0.0822,-0.79903 0.24103,-0.79903 0.38557,0 0.35989,-0.24035 -0.0763,-0.71416 -0.36161,-0.39278 -0.52673,-1.02129 -0.36693,-1.39669 0.45263,-1.06333 -1.10082,-5.73041 -2.15497,-6.47423 -0.88475,-0.62429 -0.88565,-0.64877 -0.0139,-0.37791 1.24919,0.38812 1.18778,-0.26568 -0.0927,-0.98653 -0.80864,-0.45525 -0.93783,-0.85946 -0.61243,-1.91618 0.30889,-1.00311 0.13875,-1.69241 -0.67792,-2.74643 -1.07539,-1.38792 -0.53971,-1.37014 1.29583,0.043 0.73093,0.56272 0.92712,0.48804 1.4534,-0.55322 0.33463,-0.66209 0.3995,-1.20378 0.14417,-1.20378 -0.25534,0 -0.61331,-0.35016 -0.79549,-0.77814 -0.25823,-0.60663 -0.0831,-0.71963 0.79469,-0.51271 0.928,0.21877 1.07598,0.0933 0.84182,-0.71393 -0.15625,-0.53865 -0.0473,-1.54076 0.24207,-2.22693 0.44311,-1.05063 0.3325,-1.38553 -0.70074,-2.12161 l -1.22692,-0.87404 1.39235,0.28809 c 1.1086,0.22937 1.45124,0.0851 1.68129,-0.70794 0.24227,-0.83517 0.0447,-0.99601 -1.22329,-0.99601 -1.52805,0 -2.5735,1.34609 -1.85706,2.3911 0.18226,0.26585 -0.004,0.36416 -0.41756,0.22093 -0.91517,-0.31657 -4.72732,2.62847 -4.26855,3.29763 0.18139,0.26458 0.0921,0.34863 -0.19836,0.18679 -0.29048,-0.16184 -1.09965,0.0666 -1.79815,0.50764 l -1.27,0.8019 1.31636,0.3696 c 1.26653,0.35562 1.26087,0.36337 -0.1495,0.20485 -0.99095,-0.11138 -1.86114,0.19158 -2.68597,0.93515 -1.13205,1.02051 -1.2256,1.03436 -1.29599,0.192 -0.0707,-0.84609 -1.26412,-3.61403 -2.27054,-5.26616 -0.24132,-0.39615 -0.71859,-0.66089 -1.06059,-0.58832 -0.342,0.0726 -0.49415,-0.0543 -0.33811,-0.28189 0.38471,-0.56114 -1.22544,-2.57246 -1.80215,-2.25116 -0.46847,0.26101 -1.3091,-0.61752 -1.32386,-1.38352 -0.004,-0.23286 -1.55528,-1.15049 -3.4462,-2.03918 -1.89093,-0.8887 -4.32407,-2.39575 -5.407,-3.34901 -2.84209,-2.50179 -5.38795,-7.7825 -5.87936,-12.19516 -0.52242,-4.69113 -0.65799,-5.30615 -1.46447,-6.64359 -1.03443,-1.71548 -1.16972,-1.01244 -0.3041,1.58038 0.4287,1.28412 0.74906,3.21876 0.71191,4.29921 -0.0559,1.62583 -0.14252,1.44412 -0.50251,-1.05419 -0.23923,-1.66024 -1.02042,-4.17144 -1.73598,-5.58043 -0.76388,-1.50413 -1.21311,-3.13245 -1.0881,-3.94397 0.17856,-1.15908 0.1318,-1.22716 -0.28968,-0.4218 -0.41023,0.78386 -0.52924,0.56324 -0.64755,-1.20045 -0.2354,-3.5092 -0.0148,-5.18163 0.89176,-6.76208 0.85176,-1.48483 1.55558,-1.53013 1.5685,-0.10097 0.004,0.49404 0.87775,0.95182 2.54555,1.33439 1.39633,0.32029 2.71466,0.74133 2.92964,0.93562 0.21498,0.1943 0.37722,1.56955 0.36054,3.0561 -0.0261,2.32134 0.16189,2.85219 1.33165,3.76112 1.11789,0.86863 1.43834,0.93627 1.78796,0.37742 0.7378,-1.17933 1.33234,-0.74692 1.70468,1.23983 0.19799,1.0564 0.5786,1.92072 0.84581,1.92072 0.26722,0 0.48585,0.85157 0.48585,1.89238 0,1.0408 0.26483,2.03992 0.58852,2.22026 0.64373,0.35865 0.41916,-3.37545 -0.33397,-5.55318 l -0.41515,-1.20045 1.41195,1.34524 c 0.77658,0.73987 1.41194,1.75082 1.41194,2.24655 0,0.49572 0.32401,1.19339 0.71999,1.55036 0.396,0.35698 0.93763,1.72292 1.20361,3.03542 0.266,1.31251 0.68351,2.31128 0.92779,2.21949 0.69463,-0.261 3.54056,2.41287 3.54056,3.32651 0,0.45054 0.38441,0.95213 0.85425,1.11466 0.48774,0.16872 0.72345,0.6028 0.54938,1.01174 -0.16768,0.39391 -0.1642,1.04669 0.008,1.4506 0.27073,0.63599 0.41651,0.61991 1.08814,-0.12005 0.72521,-0.79898 0.75892,-0.78432 0.51954,0.22598 -0.1408,0.59422 -0.0387,1.0804 0.22679,1.0804 0.26554,0 0.48647,-0.70226 0.49095,-1.56058 0.006,-1.18423 0.13268,-1.38688 0.52451,-0.84031 0.28399,0.39614 0.52002,1.20645 0.5245,1.80067 0.005,0.59422 0.26201,1.0804 0.57226,1.0804 0.31025,0 0.41596,-0.21608 0.23489,-0.48018 -0.18106,-0.2641 -0.0542,-0.48018 0.2819,-0.48018 0.42056,0 0.56241,-1.16034 0.45494,-3.72139 -0.1797,-4.2824 -0.68819,-5.06467 -7.08558,-10.90055 -4.87798,-4.44983 -6.81606,-8.84337 -3.92574,-8.89948 0.75753,-0.0147 2.66175,2.20926 3.89955,4.55434 1.90163,3.60275 6.66743,8.53962 7.51025,7.77983 0.1721,-0.15514 -1.72459,-2.7195 -3.00176,-4.05844 -1.02947,-1.07925 0.80869,-0.68445 2.23567,0.48018 3.26412,2.66401 6.82171,3.60308 6.82171,1.80067 0,-0.52819 -0.21625,-0.96035 -0.48055,-0.96035 -0.26431,0 -0.7154,-0.6073 -1.00243,-1.34954 -0.28703,-0.74225 -0.8612,-1.66059 -1.27594,-2.04076 -1.53344,-1.40565 -5.37195,-6.24629 -5.12773,-6.46645 0.13893,-0.12524 0.89347,0.42069 1.67676,1.21317 0.78328,0.79249 1.67615,1.44089 1.98414,1.44089 0.30799,0 0.42737,0.19344 0.26528,0.42986 -0.16209,0.23643 0.0759,0.55807 0.52889,0.71477 0.55195,0.19094 0.70079,0.0887 0.45127,-0.30982 -0.20479,-0.3271 0.15165,-0.10854 0.79207,0.48568 0.64043,0.59422 1.44651,1.0804 1.7913,1.0804 0.34478,0 -0.68327,-1.23745 -2.28457,-2.7499 -4.06299,-3.83756 -3.0562,-3.07446 2.99456,2.26973 4.94458,4.36717 5.14688,4.49003 4.74397,2.88107 -0.23146,-0.92434 -0.49396,-3.54927 -0.58333,-5.83318 -0.14344,-3.66597 -0.32022,-4.30598 -1.50867,-5.462 -0.74041,-0.7202 -1.62354,-2.00085 -1.96251,-2.84589 -0.42237,-1.05296 -1.35916,-1.8917 -2.97699,-2.66539 -1.62293,-0.77613 -2.69767,-1.74034 -3.43901,-3.08532 -0.59309,-1.076 -2.65443,-3.29473 -4.58077,-4.9305 -2.93185,-2.48961 -3.39488,-3.09094 -2.84227,-3.6912 0.57006,-0.61919 0.86717,-0.50822 2.1767,0.81299 0.8341,0.84154 1.70014,1.36455 1.92454,1.16226 0.22441,-0.20229 0.12437,-0.6235 -0.22231,-0.93602 -0.34667,-0.31252 -0.63031,-0.94242 -0.63031,-1.39978 0,-0.60115 -0.36921,-0.79608 -1.33251,-0.70349 -0.73288,0.0704 -1.49192,0.27178 -1.68676,0.44742 -0.60217,0.54284 -1.34382,0.35209 -1.09206,-0.28087 0.3755,-0.94407 -0.62171,-2.28085 -1.70147,-2.28085 -1.7321,0 -2.31842,-1.17643 -1.087,-2.18105 0.79799,-0.65101 1.00464,-0.69428 0.7785,-0.16301 -0.19678,0.46228 0.19425,0.96552 1.08364,1.39461 0.76533,0.36924 1.62726,1.06842 1.91538,1.55374 0.32885,0.55392 0.87507,0.78191 1.46737,0.61244 0.56688,-0.16219 1.33109,0.11612 1.91443,0.69719 1.01162,1.0077 4.53444,1.38603 4.53444,0.48697 0,-0.88107 1.33531,-0.495 3.27623,0.94723 l 1.92096,1.42741 1.22827,-0.9603 c 0.67554,-0.52817 1.78963,-1.08732 2.47574,-1.24256 1.11531,-0.25234 2.2847,-1.46244 2.2847,-2.36424 0,-0.18419 -0.95874,-0.21896 -2.13054,-0.0773 -1.1718,0.14168 -2.24498,0.0907 -2.38484,-0.1133 -0.13986,-0.20401 -1.48963,-0.16851 -2.99948,0.0789 -2.02127,0.33118 -2.90237,0.29578 -3.34127,-0.13424 -0.45617,-0.44693 -0.36599,-0.51071 0.38413,-0.2717 1.27054,0.40482 2.31826,-0.1453 1.34045,-0.70383 -0.5707,-0.32598 -0.53581,-0.41435 0.1659,-0.42016 0.48873,-0.004 1.32767,-0.13577 1.86432,-0.29273 0.82647,-0.24174 0.8535,-0.20067 0.17673,0.26844 -0.62491,0.43316 -0.31356,0.48733 1.429,0.24863 1.65733,-0.22702 2.86847,-0.0498 4.7285,0.69192 1.37528,0.54841 2.88951,1.00685 3.36495,1.01877 0.47545,0.0119 0.14536,0.31848 -0.73353,0.68127 -1.29344,0.5339 -1.39496,0.67407 -0.53266,0.73551 0.64633,0.046 0.24715,0.29849 -1.01498,0.64187 -1.24908,0.33983 -2.13402,0.89591 -2.21474,1.3917 -0.0739,0.45415 -0.62252,1.38509 -1.21907,2.06876 -0.60929,0.69826 -0.94129,1.57978 -0.75755,2.01142 0.21344,0.50142 0.11599,0.65079 -0.28048,0.4299 -0.64798,-0.36102 -0.98956,0.59761 -1.30491,3.66225 -0.10191,0.99037 0.0204,1.80068 0.27185,1.80068 0.25143,0 0.29966,0.22969 0.10719,0.51043 -0.19247,0.28074 0.093,0.95231 0.63439,1.49236 1.23587,1.23285 4.24353,3.18798 3.71239,2.41325 -0.21667,-0.31603 -0.1401,-0.57461 0.17015,-0.57461 0.31026,0 0.59191,-0.70226 0.62589,-1.56058 0.04,-1.01049 0.15211,-1.22206 0.31803,-0.60023 0.14094,0.5282 0.50529,1.17644 0.80967,1.44054 0.379,0.32885 0.46179,0.13771 0.26268,-0.60651 -0.19823,-0.74088 0.0118,-1.23265 0.65999,-1.54537 1.28669,-0.62078 1.62582,-2.05233 0.74379,-3.13974 -0.85858,-1.05848 -0.92919,-1.67098 -0.19264,-1.67098 0.29296,0 0.53266,0.23152 0.53266,0.51448 0,0.28296 0.33384,0.81542 0.74186,1.18324 0.63404,0.57157 0.79408,0.51424 1.10117,-0.39443 0.21916,-0.64848 0.46653,-0.82907 0.63419,-0.46297 0.33578,0.73324 1.25141,0.79654 1.25141,0.0865 0,-0.28254 0.73061,-1.47099 1.62358,-2.64099 0.89296,-1.17 1.35821,-2.12728 1.03389,-2.12728 -0.32433,0 -0.42573,-0.23915 -0.22534,-0.53144 0.25504,-0.37201 0.49549,-0.34017 0.80147,0.10614 0.24041,0.35067 0.61394,0.47817 0.83006,0.28335 0.21612,-0.19483 0.10931,-0.60993 -0.23737,-0.92245 -0.99794,-0.89961 -0.73354,-1.42008 0.43501,-0.85632 1.195887,0.57696 1.410427,0.0608 0.39949,-0.9612 -0.55942,-0.56554 -0.52765,-0.57956 0.19882,-0.0877 0.477237,0.32308 1.304374,0.43323 1.846071,0.24584 0.833064,-0.28818 0.802894,-0.16675 -0.19958,0.80327 -0.803444,0.77743 -0.987974,1.25031 -0.577207,1.47917 0.38214,0.2129 0.18732,0.45557 -0.530657,0.66099 -0.623957,0.17852 -1.286567,0.87092 -1.472477,1.53866 -0.19519,0.70104 -0.49116,0.99071 -0.70042,0.68548 -0.43378,-0.63272 -2.8717,3.07434 -2.56583,3.90155 0.11438,0.30932 0.60773,-0.3383 1.09634,-1.43914 0.62687,-1.41233 1.12237,-1.92059 1.68323,-1.72657 0.70037,0.24227 0.7015,0.3591 0.01,0.98288 -0.43192,0.38936 -0.7853,1.04682 -0.7853,1.46101 0,0.41419 -0.41947,1.04753 -0.93216,1.40742 -0.7864,0.55202 -0.79587,0.61185 -0.0606,0.38264 0.7128,-0.22219 0.97968,0.2878 1.46482,2.79919 1.03042,5.33411 0.61104,7.23263 -0.78596,3.55797 -0.3191,-0.83936 -0.77438,-1.52612 -1.01172,-1.52612 -0.77749,0 -1.9431,3.78378 -2.03222,6.59689 -0.071,2.24091 0.12562,2.94738 1.05284,3.78324 0.92617,0.83491 1.50457,0.96616 3.08219,0.69936 2.380417,-0.40257 2.687384,-1.01908 1.63644,-3.28654 -0.44863,-0.96792 -0.81569,-2.09092 -0.81569,-2.49555 0,-1.43752 0.99055,-0.70422 1.877804,1.39013 0.665677,1.57132 1.118114,2.05058 1.734511,1.83736 0.626377,-0.21669 0.744614,-0.0787 0.475107,0.55443 -0.19735,0.46359 -0.36248,1.41945 -0.36696,2.12412 -0.005,0.82407 -0.159847,1.06583 -0.433287,0.67756 -0.317657,-0.45105 -0.699094,-0.32966 -1.508831,0.48018 -0.596037,0.59611 -1.539624,1.36199 -2.096854,1.70196 -0.55723,0.33997 -0.68242,0.47195 -0.27821,0.2933 0.48608,-0.21484 0.64389,-0.099 0.46607,0.34223 -0.14786,0.36689 -0.53851,0.61305 -0.86809,0.54702 -0.83788,-0.16785 -0.74676,0.43678 0.26139,1.7343 0.63327,0.81504 0.70363,1.2492 0.26633,1.64341 -0.32686,0.29467 -0.5943,0.91396 -0.5943,1.37622 0,0.46225 -0.41947,1.06071 -0.93216,1.32989 -0.81104,0.42585 -0.75723,0.49134 0.41414,0.50404 0.74047,0.008 1.82581,0.31738 2.41189,0.68743 1.249764,0.78913 4.834686,0.64673 4.618006,-0.18343 -0.0805,-0.30843 0.0941,-0.42678 0.38809,-0.26301 0.59105,0.32929 2.951128,-1.07502 5.827605,-3.46759 1.93017,-1.60546 2.7196,-1.91907 2.7196,-1.08041 0,0.2641 -0.21406,0.48018 -0.47567,0.48018 -0.26163,0 -0.63149,0.36603 -0.82192,0.81339 -0.30348,0.71292 -0.21182,0.70373 0.74201,-0.0744 1.21312,-0.98969 1.26878,-1.17923 0.61811,-2.10474 -0.37501,-0.5334 -0.73904,-0.51255 -2.09604,0.12004 -0.90322,0.42106 -2.073597,0.75922 -2.60083,0.75148 -1.35841,-0.0199 -4.420915,-2.66659 -4.420915,-3.82059 0,-0.53192 -0.2397,-0.96713 -0.53266,-0.96713 -0.692794,0 -0.692794,-1.77482 0,-2.16081 0.29296,-0.16322 0.53266,-0.085 0.53266,0.17373 0,0.25877 1.09132,-0.0526 2.42516,-0.69193 1.333848,-0.63933 2.772034,-1.16242 3.195975,-1.16242 1.56207,0 0.70228,1.04169 -1.626169,1.97018 -2.581806,1.02953 -2.879636,1.72118 -1.536726,3.56877 1.348777,1.85567 3.794285,1.61108 6.170225,-0.61712 1.91494,-1.79587 4.15542,-5.1298 4.15542,-6.18345 0,-0.35804 -0.6973,-0.2351 -1.96115,0.34576 -1.07863,0.49574 -2.04306,0.82749 -2.14318,0.73724 -0.42428,-0.38248 0.55034,-1.72735 1.4353,-1.98055 0.52864,-0.15125 1.88476,-1.06038 3.01359,-2.02028 1.67555,-1.42481 2.0851,-1.59315 2.23039,-0.91682 0.15939,0.74197 0.27879,0.72366 1.1438,-0.17543 0.54059,-0.56189 0.86603,-1.47224 0.73916,-2.06766 l -0.22667,-1.06378 0.5247,1.06623 c 0.39468,0.80199 0.25094,1.66008 -0.58001,3.46255 -0.60759,1.31798 -1.3463,2.35075 -1.64158,2.29503 -0.29528,-0.0557 -0.76559,0.54694 -1.04515,1.33924 -0.27955,0.79229 -0.64534,1.76466 -0.81286,2.1608 -0.16753,0.39615 -0.37162,1.01862 -0.45355,1.38326 -0.0819,0.36464 -0.44055,0.90484 -0.79694,1.20044 -0.49669,0.41199 -0.56464,0.32543 -0.29105,-0.37076 0.30268,-0.7702 0.23364,-0.816 -0.45426,-0.30134 -0.98708,0.73849 -0.98619,0.72096 -0.072,1.40494 0.77318,0.57846 2.10703,-1.09758 4.93227,-6.19761 0.65835,-1.18844 1.20963,-1.79636 1.22506,-1.35092 0.0189,0.54663 0.59078,0.87285 1.7592,1.00356 l 1.73115,0.19367 -1.73115,0.0768 c -1.47473,0.0655 -1.73115,0.2569 -1.73115,1.29237 0,0.73691 0.36703,1.3195 0.93216,1.4796 2.35699,0.66775 3.55641,1.28493 2.9074,1.49605 -0.5623,0.18292 -0.5623,0.36379 0,0.98958 0.56797,0.6321 0.56257,0.69764 -0.0309,0.37554 -0.57966,-0.31461 -0.6042,-0.19689 -0.12663,0.60753 0.32578,0.54875 0.88902,1.16961 1.25163,1.37967 0.36261,0.21007 1.25854,1.00521 1.99095,1.76698 l 1.33165,1.38504 -2.46888,-1.22589 c -2.25445,-1.11941 -2.59468,-1.16705 -3.91723,-0.54851 -0.7966,0.37256 -1.70384,0.53504 -2.0161,0.36106 -0.35967,-0.20038 -0.4392,-0.0143 -0.21699,0.50767 0.20834,0.48944 0.13696,0.70487 -0.17581,0.53061 -0.28963,-0.16135 -0.52658,-0.088 -0.52658,0.1631 0,0.25105 -0.60905,0.59426 -1.35344,0.76268 -0.74439,0.16842 -1.2102,0.51516 -1.03512,0.77052 0.34071,0.49698 0.84656,2.25667 0.92213,3.20782 0.0253,0.3185 0.28211,0.44755 0.57069,0.28677 0.28858,-0.16078 0.78795,0.0265 1.10971,0.41612 1.01562,1.22988 2.58049,1.77045 3.85783,1.33266 0.96097,-0.32937 1.26569,-0.21907 1.53893,0.55702 0.21723,0.61699 0.75835,0.9397 1.49311,0.89046 1.54346,-0.10344 3.7717,0.55798 3.12071,0.92632 -0.31114,0.17605 -0.22257,0.54131 0.2213,0.91267 0.6241,0.52215 0.74258,0.25883 0.75624,-1.68062 0.0197,-2.79554 0.92501,-1.8561 1.12276,1.16507 0.0904,1.38126 0.33266,1.88651 0.82317,1.71683 0.38228,-0.13224 0.55596,-0.44334 0.38594,-0.69134 -0.17002,-0.24799 -0.0263,-0.75807 0.31932,-1.13352 0.39406,-0.42803 0.49878,-1.3745 0.28079,-2.53767 -0.25813,-1.37732 -0.13533,-2.01389 0.47686,-2.47191 0.45349,-0.33928 0.67028,-0.84185 0.48176,-1.11684 -0.19136,-0.27912 -0.0872,-0.35757 0.23581,-0.17761 0.31821,0.17729 2.39892,-0.32953 4.62379,-1.12625 5.17946,-1.85479 6.33207,-1.82485 2.02,0.0525 -2.09384,0.91157 -3.33542,1.7483 -3.34607,2.255 -0.009,0.4431 -0.32288,1.16838 -0.6968,1.61172 -0.72113,0.85505 -1.2174,8.55741 -0.55136,8.55741 0.2109,0 1.73747,-1.06164 3.39236,-2.35921 1.6549,-1.29756 4.11486,-3.03207 5.46659,-3.85445 1.35173,-0.82239 2.95551,-2.22138 3.56396,-3.10887 0.60845,-0.8875 1.43021,-1.85598 1.82612,-2.15218 0.5813,-0.43491 0.67708,-0.28357 0.49762,0.78633 -0.12223,0.72868 -0.2493,1.64353 -0.28239,2.03299 -0.0863,1.01565 -1.6704,2.10209 -6.76619,4.64054 -5.12346,2.55222 -8.6841,5.51849 -10.16031,8.46426 -0.56035,1.11815 -1.8564,3.38076 -2.88012,5.02801 -1.90799,3.07012 -3.30074,6.60362 -2.40649,6.10539 0.27025,-0.15057 0.49136,-0.55867 0.49136,-0.90689 0,-0.34822 0.37782,-0.9158 0.83959,-1.26128 0.67584,-0.50563 0.9211,-0.50924 1.25753,-0.0185 0.31788,0.46367 0.49944,0.41813 0.7584,-0.19019 0.47692,-1.1204 0.42783,-1.3068 -0.24535,-0.93174 -0.41172,0.22938 -0.40615,0.0238 0.0188,-0.69193 0.68964,-1.16166 1.36985,-1.38515 0.90709,-0.29804 -0.18676,0.43874 -0.001,0.72027 0.47567,0.72027 0.43026,0 0.78228,-0.32412 0.78228,-0.72027 0,-0.39615 0.25385,-0.72027 0.5641,-0.72027 0.31025,0 0.39307,0.24947 0.18403,0.55437 -0.24705,0.36036 -0.14477,0.42328 0.29228,0.17978 0.45065,-0.25107 0.566,-0.97409 0.34982,-2.19281 l -0.32253,-1.81822 4.6596,-2.05249 c 2.56278,-1.12888 5.41958,-2.3762 6.34845,-2.77184 0.92887,-0.39563 2.30125,-1.3817 3.04974,-2.19126 2.94205,-3.18211 5.16705,-5.89882 6.71126,-8.19443 2.02803,-3.01486 3.66276,-4.78329 4.07669,-4.41014 0.17548,0.15819 -0.19006,1.06547 -0.81231,2.01619 -0.62224,0.95071 -1.13135,2.26918 -1.13135,2.92992 0,0.67862 -0.23178,1.07221 -0.53267,0.90457 -0.32373,-0.18037 -0.53187,0.51481 -0.53066,1.77233 l 0.002,2.0691 1.16577,-1.68062 c 0.64117,-0.92435 1.12187,-2.00475 1.06823,-2.4009 -0.0537,-0.39615 0.85903,-1.35594 2.0282,-2.13288 1.16916,-0.77693 2.12575,-1.58723 2.12575,-1.80067 0,-0.50911 2.73021,-0.48735 3.63353,0.029 0.52001,0.29722 0.66831,1.60552 0.56768,5.00818 -0.0749,2.53322 -0.31053,4.50874 -0.52358,4.39004 -0.41933,-0.23353 -4.7431,4.44585 -4.7431,5.13304 0,0.2296 -0.25329,0.41745 -0.56286,0.41745 -0.31549,0 -0.19844,-0.46902 0.26633,-1.0672 1.09221,-1.4057 1.15068,-2.599 0.0839,-1.71276 -0.4099,0.34054 -0.64472,0.71358 -0.52183,0.829 0.12289,0.11541 -0.65628,1.02199 -1.73149,2.01461 -1.64773,1.52117 -1.76768,1.76063 -0.76329,1.52386 1.0136,-0.23895 0.76045,0.2851 -1.69434,3.50744 -3.99588,5.24529 -4.03407,5.32448 -1.96406,4.07234 1.37289,-0.83046 1.2365,-0.64497 -0.54845,0.74588 -1.30668,1.01817 -2.94365,2.32404 -3.63772,2.90194 -0.69406,0.5779 -1.57437,0.94264 -1.95624,0.81054 -0.38188,-0.1321 -2.10067,0.28636 -3.81956,0.92991 -1.71887,0.64355 -5.10476,1.74114 -7.52418,2.43909 -3.92011,1.13085 -4.52893,1.19465 -5.59295,0.586 -0.6567,-0.37564 -2.45241,-0.83186 -3.99047,-1.01383 -1.53806,-0.18196 -2.79647,-0.40069 -2.79647,-0.48606 0,-0.0854 0.47939,-1.16342 1.06532,-2.39565 1.24335,-2.61481 1.36276,-3.75604 0.2549,-2.43595 -0.42711,0.50892 -0.94133,0.77676 -1.14272,0.59522 -0.20139,-0.18156 0.33545,-1.00409 1.19298,-1.82786 1.26241,-1.2127 1.33853,-1.39492 0.39994,-0.95741 -1.27281,0.59332 -4.69886,4.86609 -3.90179,4.86609 0.27275,0 0.75606,-0.43821 1.07403,-0.97381 0.31797,-0.53559 0.83139,-0.8327 1.14094,-0.66025 0.30954,0.17246 0.35743,0.44862 0.10643,0.61368 -0.251,0.16506 -0.53423,0.62423 -0.62941,1.02038 -0.24231,1.00853 -2.26739,2.88107 -3.11577,2.88107 -0.38838,0 -0.72396,0.2701 -0.74573,0.60023 -0.0218,0.33012 -0.13451,1.05332 -0.25054,1.6071 -0.23511,1.12216 0.57575,1.60442 4.74885,2.82434 1.42692,0.41713 3.0749,0.62095 3.66217,0.45292 0.68916,-0.19718 0.94305,-0.1236 0.71604,0.20752 -0.19344,0.28216 -1.24217,0.64319 -2.33051,0.80228 -1.08834,0.1591 -2.51812,0.48695 -3.17729,0.72857 -0.82889,0.30384 -1.19849,0.26974 -1.19849,-0.11059 0,-0.30246 -0.15136,-0.41347 -0.33636,-0.24669 -0.18501,0.16677 -0.78429,0.0871 -1.33176,-0.17701 -0.54746,-0.26412 -2.25375,-0.60204 -3.79176,-0.75093 -1.538,-0.1489 -3.03607,-0.39883 -3.32904,-0.55542 -0.29296,-0.15658 -0.20369,0.0809 0.19839,0.52775 0.63909,0.71025 0.60148,0.81244 -0.29905,0.81244 -0.56656,0 -1.52919,0.41915 -2.13917,0.93144 -0.60999,0.5123 -1.23363,0.81916 -1.38588,0.68191 -0.15225,-0.13725 -0.94525,0.14528 -1.76222,0.62784 -1.383778,0.81734 -1.460972,0.81997 -1.128261,0.0384 0.779461,-1.8311 -0.213288,-0.68445 -1.688926,1.95075 -1.808788,3.23014 -2.343748,3.69899 -4.750065,4.1631 -0.973114,0.18768 -3.304889,0.96891 -5.181739,1.73607 -3.89846,1.59348 -3.71065,1.57074 -5.83283,0.70643 z m -10.12057,-0.75213 c 0.18106,-0.2641 0.0895,-0.48018 -0.20346,-0.48018 -0.29296,0 -0.6808,0.21608 -0.86186,0.48018 -0.18107,0.26409 -0.0895,0.48018 0.20346,0.48018 0.29296,0 0.6808,-0.21609 0.86186,-0.48018 z m 24.207826,-4.53101 c 0.49135,-0.53371 0.49135,-0.94073 2e-5,-1.80068 -0.52242,-0.91434 -0.51094,-1.00556 0.0648,-0.51513 0.566884,0.48286 0.98188,0.16392 2.186766,-1.68063 0.817908,-1.25212 1.491192,-2.75001 1.496188,-3.32865 0.0048,-0.57863 0.217822,-1.16836 0.472941,-1.3105 0.25513,-0.14214 0.61186,-0.9255 0.79274,-1.74079 0.18292,-0.82448 0.56805,-1.3491 0.8678,-1.1821 0.6562,0.36559 0.65619,0.36579 0.0514,-1.53525 -0.3812,-1.1982 -0.30385,-1.66874 0.35468,-2.15763 0.74374,-0.55215 0.80321,-0.45684 0.50866,0.81529 -0.18346,0.79229 -0.20324,1.17043 -0.0439,0.84031 0.45359,-0.94017 1.26613,-0.70318 1.26613,0.36928 0,0.80893 0.23372,0.91663 1.4111,0.65024 0.89131,-0.20166 1.2892,-0.14146 1.08016,0.16345 -0.34682,0.50587 1.39313,0.45793 2.88012,-0.0794 0.6078,-0.21961 0.83125,-0.036 0.79899,0.65662 -0.059,1.26807 0.97177,1.31956 1.19077,0.0595 0.10979,-0.63172 0.5825,-0.98605 1.33165,-0.99817 0.93991,-0.0152 0.83124,-0.14817 -0.5697,-0.69709 -0.95214,-0.37306 -1.73115,-0.88458 -1.73115,-1.1367 0,-0.25212 -0.53932,-0.33858 -1.19849,-0.19213 -1.1906,0.26453 -1.18972,0.25764 0.13316,-1.04595 0.73241,-0.72174 1.27567,-1.78013 1.20724,-2.352 -0.11197,-0.93577 -0.0819,-0.94878 0.3003,-0.13007 0.39482,0.84566 0.50535,0.81728 1.57026,-0.40313 1.068,-1.22398 1.0886,-1.39117 0.30426,-2.47028 -0.46273,-0.63659 -1.09338,-1.15744 -1.40148,-1.15744 -0.30809,0 -0.42035,0.12605 -0.24945,0.2801 0.34553,0.31149 -1.02678,1.60371 -2.54129,2.39298 -1.68929,0.88035 -2.19583,2.004 -1.41289,3.13417 0.38437,0.55483 0.58182,1.11428 0.43877,1.24324 -0.14304,0.12894 -0.52285,-0.20817 -0.84402,-0.74916 -0.34619,-0.58312 -0.9047,-0.87264 -1.37175,-0.71107 -0.4333,0.14988 -0.6323,0.49935 -0.44224,0.77658 0.20719,0.30221 0.088,0.36058 -0.29751,0.14577 -0.35369,-0.19706 -0.55437,-0.5982 -0.44594,-0.89143 0.25693,-0.69484 -1.0895,-2.15662 -2.95674,-3.21004 l -1.484186,-0.83732 2.648256,-1.027 c 1.45654,-0.56485 2.90344,-1.027 3.21533,-1.027 0.3119,0 0.56709,-0.19932 0.56709,-0.44294 0,-0.72599 -3.50792,-1.54601 -5.08611,-1.18894 -1.111425,0.25147 -1.363789,0.18417 -1.04625,-0.27899 0.31721,-0.46269 -0.04655,-0.56146 -1.503282,-0.40815 -1.31064,0.13794 -2.011853,-0.009 -2.205073,-0.46332 -0.48937,-1.14962 0.1451,-1.42142 3.173223,-1.35939 1.616782,0.0331 2.999352,-0.0478 3.072392,-0.17988 0.37019,-0.6693 3.85096,-1.94901 4.02453,-1.47963 0.26129,0.70666 1.55102,0.65632 2.07424,-0.081 0.23428,-0.33013 0.77478,-0.60023 1.20112,-0.60023 0.87638,0 1.82453,-3.26468 1.39763,-4.81237 -0.25555,-0.92648 -0.61641,-0.96441 -7.87857,-0.82816 l -7.610765,0.14278 1.800531,-0.89714 c 1.471872,-0.73338 1.634067,-0.95472 0.888597,-1.2126 -1.708644,-0.59107 -3.751118,-0.30562 -5.959612,0.8329 l -2.205158,1.13679 -0.477237,-1.50271 c -0.653367,-2.0573 -2.770077,-2.95573 -5.235567,-2.22222 -3.47717,1.0345 -7.18836,6.09764 -7.18836,9.80701 0,0.64882 -0.2397,1.31322 -0.53266,1.47644 -0.29296,0.16322 -0.51374,0.87824 -0.49061,1.58892 0.0366,1.12524 0.13483,1.04405 0.76028,-0.62856 0.39502,-1.0564 1.10884,-3.18474 1.58626,-4.72965 1.06478,-3.44561 4.69021,-7.43089 5.19062,-5.70585 0.19083,0.65781 0.0715,0.92452 -0.34859,0.7792 -0.85719,-0.29653 -2.15088,1.94513 -1.59255,2.75952 0.69674,1.01627 0.65107,2.40226 -0.0709,2.15251 -0.49731,-0.17204 -0.52043,0.13351 -0.0983,1.29931 0.30356,0.83833 0.62792,1.79434 0.72079,2.12446 0.2154,0.76568 2.98239,0.78305 3.82439,0.024 0.49715,-0.44816 0.63919,-0.39481 0.63919,0.24009 0,0.82325 -0.50799,1.00538 -2.32204,0.83253 -0.54471,-0.0519 -0.84697,0.11481 -0.67169,0.37047 0.37434,0.54602 -0.56217,1.31813 -2.06655,1.70377 -0.58593,0.15021 -0.10654,0.15518 1.06532,0.011 1.17186,-0.14413 2.56043,-0.6098 3.08573,-1.03482 0.88088,-0.71272 0.92818,-0.70957 0.60884,0.0406 -0.19044,0.44738 -0.12718,0.8134 0.14058,0.8134 0.26775,0 0.71287,-0.53854 0.98915,-1.19675 0.3716,-0.88533 0.70132,-1.08229 1.26706,-0.75686 0.638997,0.36755 0.648407,0.56624 0.0573,1.20835 -0.38912,0.42266 -0.55348,0.90731 -0.36525,1.07699 0.18823,0.16968 0.34224,0.0436 0.34224,-0.28003 0,-0.32371 0.24826,-0.45024 0.551687,-0.28118 0.634967,0.35376 0.522507,4.07092 -0.123167,4.07092 -0.23569,0 -0.44371,0.37814 -0.46229,0.84031 -0.0242,0.60311 -0.19659,0.50145 -0.61058,-0.36013 -0.31726,-0.66025 -0.54461,-1.74065 -0.50522,-2.4009 l 0.0716,-1.20045 -0.65353,1.20045 c -0.35944,0.66025 -1.19554,1.59427 -1.858,2.07561 -0.66245,0.48135 -1.20446,1.13558 -1.20446,1.45387 0,0.31829 -0.4896,0.9566 -1.08799,1.41848 -0.59839,0.46188 -0.94549,1.04763 -0.77133,1.30166 0.18009,0.26269 -0.0973,0.34381 -0.64316,0.1881 -0.91046,-0.25971 -0.91188,-0.23818 -0.0277,0.41857 1.14278,0.8488 1.21266,1.37365 0.13317,1.00023 -0.52144,-0.18038 -0.82718,0.0334 -0.88013,0.61529 -0.11727,1.28888 -0.23593,1.74274 -0.72095,2.75762 -0.49939,1.04496 0.17644,2.23792 1.66323,2.93586 0.56259,0.2641 1.58627,0.99204 2.27483,1.61765 l 1.25194,1.13748 1.87954,-1.85774 c 1.03375,-1.02176 1.7271,-1.46839 1.54078,-0.9925 -0.21359,0.54553 -0.13078,0.74938 0.22411,0.55166 0.30957,-0.17248 0.42383,-0.64023 0.25389,-1.03944 -0.35877,-0.84284 1.709531,-4.10502 2.369555,-3.73729 0.660797,0.36815 1.684241,-2.83228 1.243824,-3.88963 -0.326207,-0.78315 -0.261097,-0.82615 0.455977,-0.30112 0.6884,0.50404 0.89173,0.48278 1.14833,-0.12004 0.17151,-0.40289 0.12778,-0.73253 -0.0972,-0.73253 -0.73038,0 -0.003,-3.30944 0.8671,-3.94465 0.46483,-0.33938 0.68948,-0.38245 0.49922,-0.0957 -0.19026,0.28673 -0.15695,1.15105 0.074,1.92072 0.45726,1.5238 -1.15167,5.87216 -2.43657,6.58518 -0.380577,0.2112 -0.691977,0.78741 -0.691977,1.28048 0,0.49306 -0.232627,0.96851 -0.516957,1.05654 -0.284337,0.088 -0.583954,0.68173 -0.665824,1.31932 -0.0819,0.6376 -0.694527,1.70171 -1.361454,2.3647 -0.805944,0.80118 -1.014254,1.31594 -0.621167,1.53495 0.39048,0.21755 0.29697,0.43137 -0.275187,0.62929 -1.09549,0.37896 -0.60446,1.26136 2.245608,4.03543 2.206518,2.14769 3.313708,2.4906 4.362688,1.35119 z m 6.943325,-29.56703 c -0.31183,-0.17374 0.40169,-0.3501 1.5856,-0.39192 1.18391,-0.0418 2.15257,0.006 2.15257,0.1061 0,0.35411 -3.17928,0.5972 -3.73817,0.28582 z m -17.168781,-0.79288 c 0.3662,-0.13321 0.96545,-0.13321 1.33165,0 0.36621,0.13321 0.0666,0.2422 -0.66583,0.2422 -0.73241,0 -1.03203,-0.10899 -0.66582,-0.2422 z M 103.351,251.64298 c 0.90085,-0.42363 1.12767,-0.68926 0.59013,-0.69108 -0.48022,-0.001 -1.43901,0.44567 -2.13064,0.99399 -0.69163,0.54831 -0.95719,0.8593 -0.59014,0.69107 0.36705,-0.16822 1.32584,-0.61552 2.13065,-0.99398 z m 4.65925,-5.01565 c -0.18106,-0.2641 -0.55475,-0.48018 -0.83043,-0.48018 -0.27567,0 -0.50122,0.21608 -0.50122,0.48018 0,0.2641 0.37369,0.48018 0.83043,0.48018 0.45674,0 0.68229,-0.21608 0.50122,-0.48018 z m 30.33172,-7.54546 c 0.20384,-0.47885 0.043,-0.48312 -0.77842,-0.0206 -0.56943,0.32058 -1.15094,0.85445 -1.29224,1.18639 -0.20383,0.47885 -0.043,0.48312 0.77842,0.0207 0.56944,-0.32058 1.15094,-0.85445 1.29224,-1.18639 z m -16.91764,-0.22744 c -0.17003,-0.38305 -0.29625,-0.26927 -0.32181,0.29011 -0.0231,0.50619 0.10276,0.78979 0.27976,0.63024 0.177,-0.15957 0.19592,-0.57372 0.042,-0.92035 z m 18.54562,-1.3505 c 0.18106,-0.2641 0.0754,-0.48018 -0.23489,-0.48018 -0.31026,0 -0.5641,0.21608 -0.5641,0.48018 0,0.26409 0.1057,0.48018 0.23489,0.48018 0.12919,0 0.38304,-0.21609 0.5641,-0.48018 z m -37.31702,-0.91558 c 0.16418,-0.23947 -0.18122,-0.32231 -0.76755,-0.18409 -1.24376,0.29321 -1.40098,0.61949 -0.2985,0.61949 0.42215,0 0.90188,-0.19593 1.06605,-0.4354 z m 17.30477,-1.63371 c -0.0361,-1.01431 -0.0539,-1.0176 -0.49522,-0.0917 -0.63002,1.32168 -0.63002,1.79155 0,1.44054 0.29296,-0.16322 0.51581,-0.7702 0.49522,-1.34884 z m -36.279651,-0.24936 c 0.18256,-1.11845 -0.10067,-1.20857 -1.7682,-0.56261 -0.99611,0.38587 -0.98322,0.41488 0.19839,0.44643 1.11517,0.0298 1.17778,0.12759 0.53266,0.83211 -0.62685,0.68455 -0.61716,0.76475 0.0679,0.56261 0.43944,-0.12966 0.87559,-0.705 0.9692,-1.27854 z m 30.692471,0.73498 c 0.38018,-0.34271 0.7145,-1.6679 0.74293,-2.94485 0.0284,-1.27696 0.17758,-2.43522 0.33142,-2.57391 0.15386,-0.13869 0.0128,-0.54215 -0.31353,-0.89657 -0.77607,-0.84298 0.63354,-0.90455 1.5613,-0.0682 0.42763,0.38549 0.63919,0.4025 0.63919,0.0514 0,-0.28866 0.372,-0.65352 0.82666,-0.81081 0.45466,-0.15727 0.69705,-0.0969 0.53866,0.13413 -0.31087,0.45342 1.87099,1.13314 2.32463,0.7242 0.15079,-0.13593 -0.0784,-0.47186 -0.5094,-0.74652 -0.65447,-0.41708 -0.63502,-0.45656 0.11808,-0.2396 0.7818,0.22523 0.89565,-0.12176 0.85651,-2.61039 -0.0405,-2.5747 -0.20941,-2.99475 -1.64094,-4.08062 -0.87768,-0.66575 -2.10205,-1.14532 -2.72082,-1.0657 -0.937,0.12057 -1.0986,0.42566 -0.96688,1.82539 0.18554,1.97158 -1.01725,5.3092 -2.54373,7.0586 -0.5922,0.67868 -1.07672,1.63698 -1.07672,2.12956 0,0.49259 -0.20646,0.8956 -0.4588,0.8956 -0.25234,0 -0.34424,0.54021 -0.20423,1.20045 0.14001,0.66025 0.46631,1.20045 0.72513,1.20045 0.25881,0 0.47056,0.32412 0.47056,0.72027 0,0.88465 0.39376,0.91408 1.29998,0.0971 z m 3.33781,0.24012 c 0.35355,-0.20257 0.58546,-0.90152 0.51535,-1.55323 -0.15229,-1.41563 -1.90807,-4.51041 -2.33868,-4.12223 -0.16663,0.15021 -0.001,0.6013 0.36847,1.00243 0.36929,0.40112 0.53333,1.2054 0.36453,1.78729 -0.1688,0.58188 -0.0327,1.35578 0.30238,1.71978 0.46532,0.50543 0.42858,0.76488 -0.15546,1.09803 -0.42061,0.23993 -0.52504,0.43623 -0.23208,0.43623 0.29296,0 0.82193,-0.16573 1.17549,-0.3683 z m -28.074891,-0.81744 c 0,-0.39615 -0.23969,-0.72027 -0.53266,-0.72027 -0.29296,0 -0.53266,0.32412 -0.53266,0.72027 0,0.39615 0.2397,0.72027 0.53266,0.72027 0.29297,0 0.53266,-0.32412 0.53266,-0.72027 z m 32.475411,-2.09955 c 0.0136,-0.53147 -0.13771,-0.54332 -0.78205,-0.0613 -0.43945,0.32878 -0.799,1.04478 -0.799,1.59111 0,0.97652 0.0133,0.97756 0.78206,0.0613 0.43012,-0.51265 0.78967,-1.22865 0.79899,-1.5911 z m -45.960741,0.80907 c -0.17004,-0.38305 -0.29626,-0.26928 -0.32182,0.29011 -0.0231,0.50618 0.10277,0.78979 0.27977,0.63023 0.177,-0.15956 0.19592,-0.57371 0.0421,-0.92034 z m -6.57501,-1.76558 c -0.18786,-0.69606 -0.65498,-1.43333 -1.03805,-1.63839 -0.38307,-0.20505 -0.56095,-0.69123 -0.39529,-1.0804 0.39118,-0.91896 -0.0559,-0.89996 -1.10639,0.047 -1.10434,0.99553 -1.10794,2.32297 -0.005,1.94152 0.5764,-0.19939 0.79658,-0.0309 0.71713,0.54885 -0.0631,0.46012 0.07,1.22024 0.29576,1.68915 0.65419,1.35903 1.95922,0.0748 1.53211,-1.50773 z m 15.79905,1.85561 c 0,-0.2641 -0.2397,-0.48018 -0.53266,-0.48018 -0.29297,0 -0.53266,0.21608 -0.53266,0.48018 0,0.2641 0.23969,0.48018 0.53266,0.48018 0.29296,0 0.53266,-0.21608 0.53266,-0.48018 z m 37.270101,-3.72139 c -0.012,-1.32974 -0.14458,-1.60282 -0.5071,-1.04416 -0.43896,0.67645 -0.19573,2.84484 0.31909,2.84484 0.11232,0 0.19692,-0.81031 0.18801,-1.80068 z m -66.566491,0.84032 c 0,-0.2641 -0.25384,-0.48018 -0.5641,-0.48018 -0.31025,0 -0.41595,0.21608 -0.23489,0.48018 0.18106,0.2641 0.4349,0.48018 0.56409,0.48018 0.1292,0 0.2349,-0.21608 0.2349,-0.48018 z m 10.74037,-2.1516 c 0.57169,-0.65519 1.20544,-1.1698 1.40831,-1.14359 1.01851,0.1316 1.23432,-0.13556 0.6352,-0.78634 -0.36471,-0.39614 -1.22727,-0.72027 -1.91681,-0.72027 -0.8983,0 -1.56517,-0.51046 -2.35239,-1.80067 l -1.09867,-1.80067 0.32191,2.4009 c 0.29326,2.18727 1.29551,5.04188 1.77019,5.04188 0.10605,0 0.66056,-0.53606 1.23226,-1.19124 z m -0.6198,-1.20966 c -0.42247,-0.23538 -0.64829,-0.536 -0.50181,-0.66805 0.14648,-0.13205 0.612,-0.0475 1.03447,0.18787 0.42248,0.23538 0.6483,0.536 0.50181,0.66805 -0.14648,0.13205 -0.61199,0.0475 -1.03447,-0.18787 z m 4.2613,1.44054 c 0,-0.2641 -0.25385,-0.48018 -0.5641,-0.48018 -0.31026,0 -0.41596,0.21608 -0.2349,0.48018 0.18107,0.2641 0.43491,0.48018 0.5641,0.48018 0.12919,0 0.2349,-0.21608 0.2349,-0.48018 z m -7.2372,-1.26491 c 0.59155,-1.38968 -0.25195,-3.96147 -1.40777,-4.29217 -0.65121,-0.18631 -1.25675,-0.0506 -1.53395,0.34377 -0.73474,1.04532 -0.5546,1.29942 0.72417,1.02151 0.98242,-0.2135 1.07845,-0.1448 0.53266,0.38108 -0.89497,0.86233 -0.84429,1.57431 0.0891,1.25143 0.4152,-0.14363 0.88708,0.0493 1.04861,0.4288 0.16153,0.37947 0.0615,0.68995 -0.22225,0.68995 -0.28377,0 -0.51594,0.21608 -0.51594,0.48018 0,0.77083 0.92045,0.55275 1.28538,-0.30455 z m 59.269231,-1.22602 c -0.17004,-0.38305 -0.29626,-0.26927 -0.32182,0.29011 -0.0231,0.50619 0.10276,0.78979 0.27977,0.63024 0.17699,-0.15957 0.19592,-0.57372 0.042,-0.92035 z m 2.55862,-0.68887 c 0.44338,-0.9566 0.79493,-2.09103 0.78123,-2.52095 -0.0186,-0.58518 -2.10304,3.51385 -2.1053,4.14017 -0.002,0.61443 0.66956,-0.2071 1.32407,-1.61922 z m -69.845221,-5.70352 c -0.16863,-0.39614 -0.55,-0.72026 -0.8475,-0.72026 -0.31177,0 -0.26,0.30511 0.12221,0.72026 0.36471,0.39615 0.74609,0.72027 0.8475,0.72027 0.10142,0 0.0464,-0.32412 -0.12221,-0.72027 z m 54.423741,-0.73773 c 1.23688,-1.16382 1.43516,-1.62403 0.98268,-2.28085 -1.06225,-1.54198 -2.93729,-2.02665 -5.53817,-1.43152 -4.55491,1.04224 -5.315433,3.02862 -1.68037,4.38892 3.00418,1.12421 4.49382,0.9626 6.23586,-0.67655 z m -41.299821,-3.34379 c 0,-0.2641 -0.2397,-0.48018 -0.53266,-0.48018 -0.29297,0 -0.53266,0.21608 -0.53266,0.48018 0,0.2641 0.23969,0.48018 0.53266,0.48018 0.29296,0 0.53266,-0.21608 0.53266,-0.48018 z m 28.826808,-2.08868 c 2.016044,-1.09333 3.665533,-2.15105 3.665533,-2.35049 0,-0.60632 -0.894915,-0.40603 -1.597985,0.35765 -0.364709,0.39615 -1.127299,0.72027 -1.694642,0.72027 -0.567349,0 -0.906214,0.1828 -0.753034,0.40623 0.153177,0.22343 -0.894374,0.90145 -2.327884,1.50671 l -2.606381,1.10049 -2.184698,-1.02654 c -1.201587,-0.56459 -2.790047,-1.02653 -3.529907,-1.02653 -1.68978,0 -3.05869,-2.56476 -3.9725,-7.44278 -0.34632,-1.84869 -0.85913,-3.57734 -1.13957,-3.84144 -0.3281,-0.30897 -0.4048,-0.0521 -0.21513,0.72027 0.16213,0.66025 0.65724,2.66755 1.10024,4.46067 1.36714,5.53371 2.6323,6.96342 7.32205,8.27441 2.775025,0.77575 3.304382,0.65172 7.933908,-1.85892 z m -30.424798,1.48392 c 0,-0.33262 -0.47939,-0.87466 -1.06532,-1.20452 -1.231,-0.69302 -1.3309,-0.48176 -0.40453,0.85544 0.74822,1.08005 1.46985,1.25143 1.46985,0.34908 z m 40.056141,-2.99658 c 0,-0.95956 -0.11528,-1.84858 -0.25618,-1.9756 -0.39007,-0.35163 -1.981,1.23496 -1.981,1.9756 0,0.74063 1.59093,2.32722 1.981,1.97559 0.1409,-0.12702 0.25618,-1.01604 0.25618,-1.97559 z m -26.706351,-3.30525 c -0.36441,-0.61382 -0.60388,-1.63381 -0.53215,-2.26665 0.0717,-0.63284 -0.0307,-1.69081 -0.22761,-2.35106 -0.4782,-1.60342 -0.7398,-3.9719 -0.81193,-7.35107 -0.0368,-1.72524 -0.26275,-2.67615 -0.5922,-2.4926 -0.29297,0.16322 -0.53267,0.0266 -0.53267,-0.30353 0,-0.33016 -0.35192,-0.18085 -0.78205,0.33179 -1.07165,1.27725 -1.00609,2.76134 0.29576,6.69577 0.61143,1.84785 1.13077,3.62033 1.1541,3.93883 0.0233,0.31851 0.22536,0.47718 0.44896,0.3526 0.2236,-0.12458 0.5865,1.55955 0.80644,3.74251 0.36285,3.60133 0.44788,3.82313 0.9179,2.39422 0.37065,-1.12677 0.32952,-1.89228 -0.14455,-2.69081 z m -1.09857,1.42344 c 0,-0.85687 -1.72796,-3.63315 -2.26381,-3.63722 -0.55436,-0.004 -0.51629,0.19457 0.45733,2.38815 0.84654,1.90724 1.80648,2.57099 1.80648,1.24907 z m -42.08027,-7.48169 c -0.34044,-0.57343 -0.73882,-0.93457 -0.88531,-0.80252 -0.14648,0.13205 0.0122,0.70927 0.35265,1.2827 0.34043,0.57344 0.73882,0.93457 0.8853,0.80252 0.14648,-0.13205 -0.0122,-0.70926 -0.35264,-1.2827 z m 43.19458,-3.63566 -0.50655,-1.8864 0.0623,2.28685 c 0.0343,1.25777 0.26223,2.10665 0.50655,1.8864 0.24432,-0.22025 0.21627,-1.24933 -0.0623,-2.28685 z m -9.38899,-16.8523 c 0.27699,-1.33101 0.16783,-1.86118 -0.44708,-2.1714 -1.30357,-0.65763 -2.46413,-1.84712 -2.46413,-2.52555 0,-0.34494 -0.31324,-0.86152 -0.69608,-1.14794 -0.52985,-0.39641 -0.89309,-0.20978 -1.5211,0.78152 -1.02757,1.622 -0.50505,3.63925 1.42565,5.50385 1.95712,1.89012 3.24973,1.73635 3.70274,-0.44048 z m 4.54605,-5.63043 c 0,-0.10379 -0.372,-0.3174 -0.82666,-0.47468 -0.47403,-0.16398 -0.68784,-0.0835 -0.50123,0.18872 0.31281,0.45627 1.32789,0.67487 1.32789,0.28596 z m -10.80743,69.335 c -0.15315,-0.52794 -0.0613,-1.08089 0.2042,-1.22879 0.26546,-0.1479 0.48266,0.28405 0.48266,0.95988 0,1.4713 -0.30359,1.59015 -0.68686,0.26891 z m 5.74714,-8.6437 c -0.86845,-0.33642 -0.89887,-0.41892 -0.1646,-0.44643 0.4954,-0.0186 1.04887,0.18233 1.22993,0.44643 0.37854,0.55214 0.36003,0.55214 -1.06533,0 z m -21.87048,-9.87017 c -0.9929,-0.71709 -0.98636,-0.72596 0.16452,-0.22319 0.65917,0.28796 1.19849,0.624 1.19849,0.74675 0,0.36745 -0.27624,0.26134 -1.36301,-0.52356 z m -2.68256,-1.77418 -1.01472,-1.0804 1.19849,0.91473 c 1.12629,0.85963 1.44098,1.24607 1.01472,1.24607 -0.10108,0 -0.6404,-0.48618 -1.19849,-1.0804 z m -4.76525,-5.19387 c -0.19311,-0.28167 -0.23687,-0.61511 -0.0972,-0.74098 0.13962,-0.12587 0.3958,0.10459 0.56928,0.51212 0.36018,0.84613 0.0532,0.99496 -0.47204,0.22886 z m 13.64683,-8.41121 c 0.0256,-0.55938 0.15177,-0.67316 0.32181,-0.29011 0.15387,0.34663 0.13495,0.76079 -0.0421,0.92035 -0.177,0.15956 -0.30289,-0.12405 -0.27976,-0.63024 z m 64.668161,-1.65251 c -0.18554,-0.27064 -0.0199,-0.4327 0.36806,-0.36013 0.38798,0.0726 0.63956,-0.15422 0.55906,-0.50398 -0.0805,-0.34975 0.11091,-0.49257 0.42536,-0.31738 0.40099,0.2234 0.38545,0.52086 -0.052,0.99605 -0.74447,0.80866 -0.86172,0.82538 -1.30045,0.18544 z M 88.576269,207.8812 c 0.005,-0.21366 0.24052,-0.7126 0.52451,-1.10874 0.44499,-0.62073 0.51748,-0.60805 0.52451,0.0917 0.005,0.44659 -0.23154,0.94552 -0.52451,1.10874 -0.29296,0.16323 -0.52899,0.12196 -0.52451,-0.0917 z m 4.785786,-7.14529 c 0,-0.0788 0.22813,-0.68419 0.50697,-1.34531 0.43942,-1.04189 0.3507,-1.222 -0.665827,-1.35175 -1.066974,-0.1362 -1.143964,-0.34467 -0.853297,-2.31052 l 0.31949,-2.1608 0.08,2.04076 c 0.0657,1.67519 0.265207,2.04076 1.113874,2.04076 0.56864,0 1.18203,0.21608 1.3631,0.48018 0.18106,0.2641 0.0754,0.48018 -0.2349,0.48018 -0.31025,0 -0.5641,0.43216 -0.5641,0.96036 0,0.5282 0.21035,0.96036 0.46745,0.96036 0.58826,0 1.735444,-1.21536 1.41761,-1.50187 -0.12998,-0.11718 0.231644,-0.21306 0.803622,-0.21306 1.459307,0 1.293697,0.48769 -0.424858,1.25116 -1.358724,0.6036 -3.329144,0.99989 -3.329144,0.66955 z m 13.588235,-7.64856 c 2.13443,-2.67278 2.72455,-3.16799 1.53515,-1.28828 -0.55432,0.87604 -1.47161,1.95644 -2.03842,2.4009 -0.59942,0.47002 -0.38887,0.005 0.50327,-1.11262 z m -17.849511,-2.42923 c 0,-0.41174 0.24361,-0.61289 0.541347,-0.447 0.29774,0.16588 0.40345,0.50276 0.23489,0.74861 -0.456607,0.66602 -0.776237,0.54183 -0.776237,-0.30161 z m 15.747751,-0.35251 c 0.20003,-0.47356 0.49787,-0.74006 0.66187,-0.59222 0.164,0.14784 3.4e-4,0.5353 -0.36369,0.86102 -0.52607,0.47071 -0.58725,0.41555 -0.29818,-0.2688 z m -65.285281,-0.8196 c 0.43944,-0.25601 1.03869,-0.46548 1.33165,-0.46548 0.29297,0 0.17312,0.20947 -0.26633,0.46548 -0.43944,0.25601 -1.03869,0.46547 -1.33165,0.46547 -0.29297,0 -0.17312,-0.20946 0.26633,-0.46547 z m 37.28631,-3.84144 c 0,-0.26409 0.25385,-0.48017 0.5641,-0.48017 0.31025,0 0.41596,0.21608 0.23489,0.48017 -0.18106,0.2641 -0.4349,0.48018 -0.56409,0.48018 -0.1292,0 -0.2349,-0.21608 -0.2349,-0.48018 z m 15.785952,-7.09701 c -0.17987,-0.26237 0.0299,-0.74406 0.466077,-1.07042 0.866047,-0.64794 1.046907,-0.1398 0.318887,0.89597 -0.278157,0.39574 -0.586307,0.46422 -0.784964,0.17445 z m -46.748272,-3.34688 c -0.67622,-0.7773 -0.65115,-0.78749 0.33428,-0.13588 0.58593,0.38744 1.1652,0.76558 1.28726,0.84031 0.12207,0.0747 -0.0283,0.13588 -0.33427,0.13588 -0.30592,0 -0.88519,-0.37814 -1.28727,-0.84031 z m 4.42882,-1.3205 c 0.63682,-0.66024 1.47418,-1.20044 1.86079,-1.20044 0.38662,0 0.70294,-0.24129 0.70294,-0.53619 0,-0.31178 -0.47796,-0.42351 -1.14205,-0.26695 -0.87287,0.20577 -0.99497,0.13663 -0.51801,-0.29334 0.44486,-0.40102 0.87842,-0.41793 1.50985,-0.0589 1.1813,0.67172 1.49525,1.63553 0.53276,1.63553 -0.42435,0 -1.381,0.43216 -2.12588,0.96036 -1.851,1.31254 -2.21516,1.20597 -0.8204,-0.24009 z m 12.05177,-3.44918 c 0.38451,-0.13871 0.84393,-0.12165 1.02093,0.0379 0.177,0.15956 -0.1376,0.27305 -0.69912,0.2522 -0.62052,-0.023 -0.74674,-0.13682 -0.32181,-0.29011 z m 1.84512,-0.40133 c -0.6353,-0.40114 -2.12558,-0.77928 -3.31173,-0.84031 -1.18615,-0.061 -2.15787,-0.28993 -2.15939,-0.50865 -0.001,-0.21873 -0.78178,-0.32677 -1.73391,-0.24009 -0.95214,0.0867 -1.73115,-0.0585 -1.73115,-0.32259 0,-0.2641 0.20766,-0.41778 0.46146,-0.34151 0.25381,0.0763 1.06234,-0.21625 1.79674,-0.65003 0.73439,-0.43378 1.17176,-0.5502 0.97191,-0.25871 -0.19984,0.29149 -0.12948,0.52998 0.15636,0.52998 0.28584,0 0.64061,-0.2701 0.78838,-0.60022 0.16554,-0.36983 0.28481,-0.2888 0.31072,0.2111 0.0302,0.58225 0.60604,0.85341 2.03953,0.96036 1.24914,0.0932 1.94759,0.3739 1.86432,0.74926 -0.0732,0.33012 0.2863,0.60709 0.79899,0.61549 0.51269,0.008 1.39744,0.33252 1.96613,0.72027 1.02191,0.69678 1.02174,0.705 -0.0147,0.705 -0.57674,0 -1.56841,-0.32821 -2.20371,-0.72935 z m -13.46381,-1.19872 c -0.69335,-0.41031 -0.69715,-0.53188 -0.0287,-0.9195 0.78969,-0.45793 3.06589,0.26969 2.48417,0.79409 -0.16449,0.14829 -0.70929,-0.0313 -1.21067,-0.39904 -0.80293,-0.58894 -0.86995,-0.56848 -0.56225,0.17167 0.40403,0.97186 0.38244,0.98302 -0.68255,0.35278 z m -2.0327,-1.67125 c -0.33427,-0.66136 -0.40116,-1.20247 -0.14865,-1.20247 0.4423,0 1.23919,1.96974 0.9151,2.26191 -0.0873,0.0787 -0.43218,-0.39807 -0.76645,-1.05944 z"
       id="path1324" />
  </g>
</svg>
